<?xml version="1.0" encoding="UTF-8"?>
<svg id="Layer_1" xmlns="http://www.w3.org/2000/svg" version="1.1" viewBox="0 0 68 68">
  <!-- Generator: Adobe Illustrator 30.0.0, SVG Export Plug-In . SVG Version: 2.1.1 Build 123)  -->
  <defs>
    <style>
      .st0 {
        fill: #d18000;
      }

      .st1 {
        fill: #03d47c;
      }

      .st2 {
        fill: none;
        stroke: #002140;
        stroke-linecap: round;
        stroke-linejoin: round;
        stroke-width: 1px;
      }
    </style>
  </defs>
  <path class="st0" d="M31.829,24.751s1.553,13.854-.39,18.388c-1.943,4.531-4.921,14.244-4.792,15.278,0,0,1.167,4.016,7.641,3.368,6.474-.648,6.474-2.72,6.474-2.72,0,0,1.424-26.544-.905-34.572,0,0-2.978-1.034-4.531-.777-1.553.258-3.496,1.034-3.496,1.034h0Z"/>
  <path class="st1" d="M33.644,8.821s-4.273-2.849-10.618-1.034c-6.345,1.815-11.524,12.043-12.043,13.854,0,0,10.618-2.201,13.725-1.943,0,0-6.474,7.251-5.955,14.892,0,0,8.933-10.747,17.35-11.134,8.417-.39,17.479,11.914,17.479,11.914,0,0-.519-10.876-5.569-15.539l9.194,2.33s-4.531-13.206-16.445-14.892c0,0-3.497-.519-7.122,1.553h.004Z"/>
  <path class="st2" d="M31.56,24.93c2.158,24.948-4.23,25.12-4.921,33.147"/>
  <path class="st2" d="M31.303,15.088s-12.691,4.921-12.691,20.718c0,0,6.217-11.395,17.608-12.172"/>
  <path class="st2" d="M41.144,15.088s12.691,4.921,12.691,20.718c0,0-6.217-11.395-17.608-12.172"/>
  <path class="st2" d="M26.643,58.077s.172,3.711,6.56,3.711,7.423-2.416,7.423-2.416c2.33-13.206-.519-34.7-.519-34.7"/>
  <path class="st2" d="M33.894,8.786c-6.388-3.973-17.264-2.072-23.305,13.467,0,0,7.598-2.935,14.33-2.763"/>
  <path class="st2" d="M34.066,8.786c8.632-5.44,19.387,3.383,23.305,13.467,0,0-4.273-1.651-9.249-2.404"/>
  <path class="st2" d="M34.393,13.472c1.487,1.225,2.455,3.063,2.623,4.983"/>
  <path class="st2" d="M28.454,53.157s4.488,3.368,12.777,0"/>
  <path class="st2" d="M30.874,46.335s4.66,2.072,10.533,0"/>
  <path class="st2" d="M32.114,38.331c1.877.429,5.085.761,8.769-.542"/>
  <path class="st2" d="M32.063,29.157c1.924.336,4.8.456,8.043-.687"/>
</svg>