<?xml version="1.0" encoding="UTF-8"?>
<svg id="Layer_1" xmlns="http://www.w3.org/2000/svg" version="1.1" viewBox="0 0 68 68">
  <!-- Generator: Adobe Illustrator 30.0.0, SVG Export Plug-In . SVG Version: 2.1.1 Build 123)  -->
  <defs>
    <style>
      .st0 {
        fill: #f25730;
      }

      .st1 {
        fill: #0164bf;
      }

      .st2 {
        fill: #002140;
      }

      .st3 {
        fill: none;
        stroke: #002140;
        stroke-linecap: round;
        stroke-linejoin: round;
        stroke-width: 1px;
      }
    </style>
  </defs>
  <path class="st0" d="M64.725,33l2.25-1.178v-3.322l-1.072-1.178h-19.171l-1.072.855h-3.212l-1.821-.749h-18.529l-19.707,1.501s-1.501,1.391-1.608,2.25c-.107.855-.107,2.786,1.072,2.676,1.178-.107,2.034-.855,2.034-.855l1.714-1.285,15.21-1.285.323,1.714,2.463.855.855,1.501,2.463,4.926h12.854l.965-2.034,2.034-4.606v-2.034h2.569v1.927l2.892,6.853h12.854l2.676-5.462.965-1.072h-.003Z"/>
  <path class="st3" d="M22.454,27.206l-19.246,1.517c-1.136.09-2.063.959-2.221,2.089-.203,1.472-.203,3.257.965,3.341,1.001.071,1.572-.5,1.892-1.088.403-.742,1.127-1.259,1.969-1.33l15.091-1.262"/>
  <path class="st3" d="M20.82,28.907l.116,2.221c.045.859.755,1.533,1.617,1.533.629,0,1.204.365,1.469.939l2.415,5.217c.265.571.839.939,1.469.939h10.85c.671,0,1.272-.413,1.511-1.04l2.063-5.371c.071-.184.106-.381.106-.581v-3.77c0-.888-.717-1.611-1.604-1.617l-18.381-.171c-.933-.01-1.679.771-1.63,1.704v-.003Z"/>
  <path class="st2" d="M30.405,36.9h6.056c.733,0,1.407-.391,1.746-1.01l1.156-2.124c.145-.268.223-.565.223-.865v-1.549c0-1.036-.881-1.876-1.966-1.876h-10.204c-1.088,0-1.966.839-1.966,1.876,0,.416.145.823.413,1.152l2.992,3.673c.371.458.946.723,1.553.723h-.003Z"/>
  <path class="st3" d="M66.998,29.049l-.116,2.221c-.045.859-.755,1.533-1.617,1.533-.629,0-1.204.365-1.469.939l-2.415,5.216c-.265.571-.839.939-1.469.939h-10.85c-.671,0-1.272-.413-1.511-1.039l-2.063-5.371c-.071-.184-.106-.381-.106-.581v-3.77c0-.888.717-1.611,1.604-1.617l18.381-.171c.933-.01,1.679.771,1.63,1.704v-.003Z"/>
  <path class="st2" d="M57.414,37.042h-6.056c-.733,0-1.407-.391-1.746-1.01l-1.156-2.124c-.145-.268-.223-.565-.223-.865v-1.549c0-1.036.881-1.875,1.966-1.875h10.204c1.088,0,1.966.839,1.966,1.875,0,.416-.145.823-.413,1.152l-2.992,3.674c-.371.458-.946.723-1.553.723h.003Z"/>
  <path class="st3" d="M42.51,30.902h2.711"/>
  <path class="st3" d="M42.368,28.188h3.141"/>
  <path class="st1" d="M32.525,29.504c-.113.868.371,1.782,1.153,2.176.517.262,1.114.3,1.675.436,1.32.326,2.482,1.243,3.102,2.453,0,0,.797-1.162,1.146-2.279.349-1.117-.323-2.143-.323-2.143l-1.391-.536-5.358-.11-.003.003Z"/>
  <path class="st1" d="M54.963,29.611c-.113.868.371,1.782,1.152,2.176.517.262,1.114.3,1.675.436,1.32.326,2.482,1.243,3.102,2.453,0,0,.797-1.162,1.146-2.279.349-1.117-.323-2.143-.323-2.143l-1.391-.536-5.358-.11-.003.003Z"/>
  <path class="st3" d="M30.601,36.803h6.056c.733,0,1.407-.39,1.746-1.01l1.156-2.124c.145-.268.223-.565.223-.865v-1.549c0-1.036-.881-1.875-1.966-1.875h-10.204c-1.088,0-1.966.839-1.966,1.875,0,.416.145.823.413,1.152l2.992,3.674c.371.458.946.723,1.553.723h-.003Z"/>
  <path class="st3" d="M57.611,36.948h-6.056c-.733,0-1.407-.391-1.746-1.01l-1.156-2.124c-.145-.268-.223-.565-.223-.865v-1.549c0-1.036.881-1.876,1.966-1.876h10.204c1.088,0,1.966.839,1.966,1.876,0,.416-.145.823-.413,1.152l-2.992,3.674c-.371.458-.946.723-1.553.723h.003Z"/>
</svg>