<?xml version="1.0" encoding="UTF-8"?>
<svg id="Layer_1" xmlns="http://www.w3.org/2000/svg" version="1.1" viewBox="0 0 68 68">
  <!-- Generator: Adobe Illustrator 30.0.0, SVG Export Plug-In . SVG Version: 2.1.1 Build 123)  -->
  <defs>
    <style>
      .st0 {
        fill: #f25730;
      }

      .st1 {
        fill: #fffaf0;
      }

      .st2 {
        fill: #8dc8ff;
      }

      .st3 {
        fill: #002140;
      }

      .st4 {
        fill: #fed607;
      }

      .st5 {
        fill: none;
        stroke: #002140;
        stroke-linecap: round;
        stroke-linejoin: round;
        stroke-width: 1px;
      }
    </style>
  </defs>
  <path class="st0" d="M55.318,12.682c.223,2.959-.46,6.005-2.431,8.732-2.096-.915-5.344-4.201-6.302-6.292,2.728-1.976,5.773-2.659,8.737-2.44h-.004Z"/>
  <path class="st1" d="M37.728,36.731l-1.581,1.572c-.052.052-.331-.133-.743-.477-1.323-1.104-4.038-3.814-5.181-5.176-.374-.442-.58-.739-.524-.795l1.572-1.585,4.811-4.849,8.832-8.887c.541-.528,1.1-1.001,1.671-1.417.958,2.092,4.205,5.378,6.302,6.293-.412.576-.885,1.134-1.417,1.675l-8.892,8.827-4.85,4.815v.004ZM38.35,31.41c1.761-1.761,0-3.522-1.761-1.761l-2.973,2.972c.412.412,1.34,1.34,1.761,1.761l2.973-2.972Z"/>
  <path class="st0" d="M42.573,31.916c2.766,2.577,3.411,5.541,1.808,8.904-.589,1.031-1.035,1.529-2.165.399l-4.493-4.493,4.85-4.815v.004Z"/>
  <path class="st0" d="M36.589,29.649c1.765-1.761,3.527,0,1.761,1.761l-2.973,2.972c-.417-.421-1.344-1.349-1.761-1.761l2.973-2.972Z"/>
  <path class="st0" d="M36.083,25.426l-4.811,4.849-.047-.047-4.497-4.497c-1.13-1.125-.631-1.576.399-2.16,3.363-1.602,6.323-.958,8.905,1.804l.052.051Z"/>
  <path class="st3" d="M35.399,37.827c-.627.666-1.246.79-1.856.365-1.357-1.099-2.586-2.332-3.69-3.689-.039-.06-.073-.12-.103-.18-.271-.571-.116-1.125.46-1.671,1.147,1.357,3.858,4.072,5.181,5.176h.009Z"/>
  <path class="st2" d="M26.009,38.965c-.142-.163-.283-.331-.425-.498-.305-.369-.541-.739-.627-1.078-.112-.421,0-.795.473-1.057l4.274-1.98.052-.03c.03.06.064.12.103.18,1.1,1.357,2.333,2.586,3.69,3.689l-1.98,4.274c-.266.472-.636.584-1.057.472-.339-.086-.709-.322-1.078-.627-.18-.146-.357-.296-.533-.447-1.014-.876-1.976-1.843-2.887-2.895l-.004-.004Z"/>
  <path class="st0" d="M30.507,42.938l-.009.039c-.528,4.235-4.081,7.525-9.223,10.326l1.254-2.607c-2.942,1.817-6.289,3.329-9.884,4.656,1.04-3.385,2.577-6.765,4.609-10.145l-2.895,1.456c2.891-5.274,6.272-8.844,10.554-9.265l.039-.009c.086.339.322.709.627,1.078.142.167.279.335.425.498-1.237.876-2.431,2.397-3.561,4.854-.743,1.533-1.516,2.959-2.586,4.141,1.383-1.018,2.758-1.722,4.124-2.358,2.045-.881,3.583-2.191,4.88-3.702l.03-.034c.176.155.357.305.533.447.369.305.739.541,1.078.627h.004Z"/>
  <path class="st4" d="M28.896,41.86l-.03.034c-1.302,1.512-2.839,2.822-4.88,3.703-1.366.636-2.741,1.34-4.124,2.358,1.07-1.177,1.843-2.607,2.586-4.14,1.134-2.461,2.324-3.982,3.561-4.854.915,1.052,1.873,2.023,2.887,2.895v.004Z"/>
  <path class="st5" d="M55.318,12.683c.223,2.959-.46,6.005-2.431,8.732-.412.575-.885,1.134-1.418,1.675"/>
  <path class="st5" d="M36.147,38.303l1.581-1.572,4.846-4.815,8.892-8.827"/>
  <path class="st5" d="M55.318,12.683c-2.96-.223-6.01.46-8.737,2.44-.571.412-1.13.885-1.671,1.418"/>
  <path class="st5" d="M29.695,31.856l1.572-1.585,4.815-4.845,8.827-8.891"/>
  <path class="st5" d="M36.147,38.304c-.052.052-.331-.133-.743-.477-1.323-1.104-4.038-3.814-5.181-5.176-.374-.442-.58-.739-.524-.795"/>
  <path class="st5" d="M35.378,34.382c-.417-.421-1.344-1.349-1.761-1.761"/>
  <path class="st5" d="M29.858,34.502c1.1,1.357,2.333,2.586,3.69,3.69"/>
  <path class="st5" d="M33.548,38.192c.606.425,1.229.301,1.856-.365"/>
  <path class="st5" d="M29.858,34.502c-.039-.06-.073-.12-.103-.18-.271-.571-.116-1.125.46-1.671"/>
  <path class="st5" d="M52.882,21.415c-2.096-.915-5.344-4.201-6.302-6.292,0-.004,0-.009-.004-.013"/>
  <path class="st5" d="M33.548,38.192l-1.985,4.274"/>
  <path class="st5" d="M31.563,42.466c-.266.472-.636.584-1.057.472-.339-.086-.709-.322-1.078-.627"/>
  <path class="st5" d="M29.704,34.352l-4.274,1.976"/>
  <path class="st5" d="M25.43,36.328c-.473.266-.584.636-.473,1.057.086.339.322.709.627,1.078"/>
  <path class="st5" d="M29.428,42.311c-.18-.146-.357-.296-.533-.447-1.014-.876-1.976-1.843-2.887-2.895-.142-.163-.284-.331-.425-.498"/>
  <path class="st5" d="M35.378,34.382l2.973-2.972"/>
  <path class="st5" d="M33.617,32.621l2.973-2.972"/>
  <path class="st5" d="M38.35,31.41c1.761-1.761,0-3.522-1.761-1.761"/>
  <path class="st5" d="M37.723,36.727l.004.004,4.489,4.493"/>
  <path class="st5" d="M44.382,40.825c1.602-3.367.958-6.327-1.808-8.904"/>
  <path class="st5" d="M42.217,41.224c1.13,1.125,1.576.631,2.165-.4"/>
  <path class="st5" d="M31.22,30.224l-4.498-4.497"/>
  <path class="st5" d="M27.126,23.567c3.363-1.602,6.323-.958,8.905,1.804"/>
  <path class="st5" d="M26.722,25.727c-1.13-1.125-.632-1.576.399-2.16"/>
  <path class="st5" d="M30.498,42.977c-.528,4.235-4.081,7.525-9.223,10.326"/>
  <path class="st5" d="M14.359,46.662c2.891-5.274,6.272-8.844,10.554-9.265"/>
  <path class="st5" d="M21.275,53.302l1.254-2.603"/>
  <path class="st5" d="M17.255,45.206l-2.895,1.456"/>
  <path class="st5" d="M22.53,50.7c-2.942,1.817-6.289,3.329-9.884,4.656"/>
  <path class="st5" d="M17.255,45.206c-2.036,3.38-3.574,6.765-4.609,10.145"/>
  <path class="st5" d="M28.866,41.899c-1.302,1.512-2.839,2.822-4.88,3.702"/>
  <path class="st5" d="M22.444,43.819c1.134-2.461,2.324-3.982,3.561-4.854.013-.009.03-.017.039-.03"/>
  <path class="st5" d="M23.982,45.601c-1.366.636-2.741,1.34-4.124,2.358"/>
  <path class="st5" d="M22.444,43.819c-.743,1.533-1.516,2.959-2.586,4.141"/>
</svg>