<?xml version="1.0" encoding="UTF-8"?>
<svg id="Layer_1" xmlns="http://www.w3.org/2000/svg" version="1.1" viewBox="0 0 68 68">
  <!-- Generator: Adobe Illustrator 30.0.0, SVG Export Plug-In . SVG Version: 2.1.1 Build 123)  -->
  <defs>
    <style>
      .st0 {
        fill: #99f6ff;
      }

      .st1 {
        fill: #002140;
      }

      .st2 {
        fill: none;
        stroke: #002140;
        stroke-linecap: round;
        stroke-linejoin: round;
      }
    </style>
  </defs>
  <path class="st0" d="M64.774,35.073v.098s-.838,1.676-2.311,4.201l-.084-.004s-2.15-.727-4.643-2.188c.904-1.422,1.792-2.793,2.639-4.058l.003-.005c2.329,1.286,4.396,1.957,4.396,1.957h0Z"/>
  <path class="st1" d="M62.379,39.369l.084.005c-.706,1.206-1.554,2.606-2.526,4.111l-.099-.065s-2.153-.703-4.664-2.149c.855-1.377,1.717-2.756,2.564-4.088,2.493,1.461,4.643,2.188,4.643,2.188h0v-.002Z"/>
  <path class="st1" d="M60.378,33.118l-.003.005c-.846,1.265-1.735,2.636-2.639,4.058-.982-.577-2.019-1.266-2.999-2.073-.391-.321-.752-.637-1.086-.949,1.005-1.455,1.988-2.754,2.856-3.761.369.333.776.673,1.228,1.018.855.653,1.768,1.222,2.642,1.703h.002,0Z"/>
  <path class="st0" d="M59.838,43.417l.099.065c-.724,1.119-1.515,2.295-2.367,3.492l-.129-.093s-2.058-.667-4.479-2.047c.724-1.169,1.464-2.367,2.21-3.567,2.513,1.448,4.664,2.149,4.664,2.149h.002Z"/>
  <path class="st0" d="M58.078,22.678c.522.783.572,1.346.375,1.751-.305.64-1.217.888-1.842.982-.424.063-.867.054-1.268.075v-.025c.847-1.119,1.533-2.335,2.15-3.415l.078-.062c.188.239.358.47.509.694,0,0-.002,0-.002,0Z"/>
  <path class="st1" d="M58.452,24.431l.014.007c-.03.083-1.055,2.717-2.931,4.878l-.062.056c-1.333-1.476-1.769-2.708-1.396-3.36.012-.022.026-.042.039-.062.123-.179.298-.287.506-.356.211-.068.456-.095.719-.107.402-.021.846-.01,1.268-.075.624-.095,1.536-.341,1.842-.982h0,0Z"/>
  <path class="st1" d="M57.441,46.882l.129.093c-.802,1.128-1.656,2.272-2.556,3.405l-.155.007c-.429-.147-2.2-.778-4.184-1.858l.038-.069c.719-1.147,1.475-2.368,2.251-3.626,2.421,1.382,4.479,2.047,4.479,2.047h-.002Z"/>
  <path class="st1" d="M57.569,21.984l-.078.061c-.617,1.08-1.301,2.296-2.152,3.415v.026c-.262.012-.507.039-.718.107l-.017-.084c-.657-.758-1.494-1.58-2.433-2.394.802-1.431,1.544-2.806,2.237-4.145l.06-.071c1.253,1.045,2.331,2.118,3.098,3.085h.003Z"/>
  <path class="st0" d="M57.736,37.179c-.847,1.332-1.709,2.711-2.564,4.088-.995-.572-2.046-1.263-3.042-2.073-.397-.323-.766-.643-1.106-.957.855-1.419,1.75-2.811,2.625-4.082.334.312.695.629,1.086.949.979.807,2.016,1.496,2.999,2.073h0v.002Z"/>
  <path class="st0" d="M54.607,25.509l.016.084c-.208.068-.382.177-.506.356-.014.021-.026.041-.039.062l-.059-.014c-.797.96-1.533,1.9-2.21,2.812l-.039-.028c-.528-.584-1.142-1.193-1.816-1.796.788-1.343,1.526-2.627,2.219-3.867.937.812,1.774,1.634,2.433,2.394v-.002h.001Z"/>
  <path class="st0" d="M54.47,18.899l-.06.071c-.694,1.34-1.435,2.714-2.237,4.145-1.277-1.108-2.746-2.206-4.21-3.118.749-1.46,1.446-2.84,2.048-4.052l.062-.111c1.556.889,3.074,1.961,4.396,3.065h0Z"/>
  <path class="st0" d="M54.078,26.011c-.373.652.063,1.883,1.396,3.36.299.332.642.674,1.034,1.026-.868,1.006-1.851,2.305-2.856,3.761-1.479-1.383-2.41-2.667-2.833-3.695l-.132-.093c.356-.511.73-1.032,1.125-1.562.677-.912,1.413-1.852,2.21-2.812l.059.014-.003.002h0Z"/>
  <path class="st1" d="M55.172,41.267c-.746,1.2-1.488,2.399-2.21,3.567-.961-.548-1.98-1.211-2.951-1.987-.385-.308-.742-.614-1.073-.915.638-1.214,1.347-2.465,2.085-3.696.34.314.707.634,1.106.957.996.81,2.048,1.5,3.042,2.073h0Z"/>
  <path class="st1" d="M50.818,30.462c.424,1.027,1.354,2.31,2.833,3.695-.877,1.271-1.771,2.661-2.625,4.082-1.497-1.385-2.442-2.672-2.872-3.701l-.09-.051c.384-.665.805-1.361,1.264-2.082.42-.656.871-1.335,1.357-2.034l.132.093v-.003h.001Z"/>
  <path class="st1" d="M51.771,28.779l.039.028c-.394.532-.769,1.053-1.125,1.562-.486.698-.937,1.377-1.357,2.033l-.098-.062c-.469-.493-.998-.999-1.574-1.503.811-1.343,1.577-2.624,2.299-3.855.674.604,1.288,1.21,1.816,1.796h0Z"/>
  <path class="st0" d="M52.962,44.835c-.776,1.257-1.532,2.478-2.251,3.626l-.038.069c-.91-.496-1.864-1.087-2.755-1.768-.358-.273-.691-.545-.998-.811l.156-.092c.49-1.2,1.13-2.537,1.861-3.924.329.3.688.605,1.073.915.969.777,1.989,1.437,2.951,1.987h0v-.002Z"/>
  <path class="st1" d="M52.174,23.115c-.692,1.24-1.431,2.525-2.219,3.867-1.192-1.071-2.576-2.139-4.029-3.074.703-1.323,1.39-2.646,2.039-3.909,1.464.912,2.932,2.01,4.21,3.118h0v-.002Z"/>
  <path class="st1" d="M50.073,15.834l-.062.111c-.602,1.212-1.298,2.592-2.048,4.052-1.563-.976-3.123-1.739-4.446-2.085l2.057-3.918c.012-.026.024-.05.03-.075,1.429.374,2.967,1.059,4.468,1.915h.001Z"/>
  <path class="st0" d="M48.154,34.537c.43,1.03,1.375,2.316,2.872,3.701-.74,1.23-1.447,2.481-2.085,3.696-1.456-1.326-2.373-2.556-2.791-3.543l-.101-.047c.272-.587.584-1.222.939-1.901.322-.617.679-1.272,1.076-1.958l.09.051h0Z"/>
  <path class="st0" d="M49.229,32.341l.098.062c-.46.722-.88,1.418-1.264,2.082-.397.686-.755,1.34-1.076,1.958l-.008-.005c-.508-.553-1.1-1.126-1.75-1.697l.137-.156c.802-1.304,1.563-2.55,2.289-3.747.576.505,1.104,1.011,1.574,1.503Z"/>
  <path class="st0" d="M49.954,26.983c-.724,1.232-1.488,2.514-2.299,3.855-1.145-1.008-2.478-2.014-3.892-2.914.713-1.299,1.444-2.66,2.162-4.018,1.453.936,2.838,2.003,4.029,3.074h0v.003Z"/>
  <path class="st1" d="M46.149,38.392c.418.985,1.335,2.217,2.791,3.543-.731,1.386-1.371,2.724-1.861,3.924l-.156.092c-1.327-1.156-2.165-2.229-2.546-3.089l-.036-.076s.421-1.672,1.708-4.44l.101.047h-.001Z"/>
  <path class="st0" d="M47.964,19.997c-.649,1.263-1.336,2.586-2.039,3.909-1.392-.898-2.847-1.679-4.25-2.227l-.105-.056,1.948-3.713c1.322.345,2.883,1.108,4.446,2.085h0v.002Z"/>
  <path class="st1" d="M47.655,30.839c-.724,1.197-1.486,2.444-2.288,3.747l-.137.156c-1.109-.979-2.392-1.951-3.739-2.813l.111-.173c.679-1.162,1.41-2.463,2.16-3.83,1.414.898,2.747,1.906,3.892,2.914v-.002h.001Z"/>
  <path class="st1" d="M23.357,54.006L44.624,13.496c.129-.246.438-.341.685-.213l.054.028c.221.116.322.377.244.608-.008.026-.018.05-.03.075l-2.057,3.918-1.948,3.713-2.127,4.051-2.143,4.082-12.992,24.745c-.129.246-.438.342-.685.213l-.054-.027c-.247-.131-.343-.437-.214-.685h0v.002Z"/>
  <path class="st1" d="M45.925,23.908c-.718,1.358-1.449,2.718-2.162,4.017-1.395-.888-2.869-1.672-4.321-2.25l2.127-4.051.105.056c1.404.548,2.859,1.329,4.25,2.227h0Z"/>
  <path class="st0" d="M43.763,27.926c-.751,1.367-1.482,2.667-2.161,3.83l-.111.173c-1.369-.877-2.806-1.637-4.193-2.169l2.143-4.082c1.452.578,2.926,1.362,4.321,2.25h0v-.002Z"/>
  <path class="st2" d="M54.02,25.997c-.797.96-1.533,1.9-2.21,2.812-.394.532-.769,1.053-1.125,1.562-.486.698-.937,1.377-1.357,2.034-.46.722-.88,1.418-1.264,2.082-.397.686-.755,1.34-1.076,1.958-.355.679-.667,1.314-.939,1.901-1.286,2.768-1.708,4.44-1.708,4.44"/>
  <path class="st2" d="M64.774,35.172s-.838,1.676-2.311,4.201c-.706,1.206-1.554,2.606-2.526,4.111-.724,1.119-1.515,2.295-2.367,3.492-.802,1.128-1.656,2.272-2.556,3.405"/>
  <path class="st2" d="M64.774,35.073s-2.066-.67-4.396-1.957c-.876-.481-1.787-1.051-2.642-1.703-.45-.344-.859-.685-1.228-1.018-.391-.351-.734-.694-1.034-1.026-1.333-1.476-1.769-2.708-1.396-3.36.012-.022.026-.042.039-.061.123-.179.298-.287.506-.356.211-.068.456-.095.719-.107.402-.021.846-.01,1.268-.075.624-.095,1.536-.341,1.842-.982.197-.407.147-.969-.375-1.751-.149-.224-.32-.455-.508-.694-.767-.966-1.845-2.04-3.098-3.085-1.322-1.104-2.841-2.176-4.396-3.065-1.502-.856-3.039-1.541-4.469-1.915-.03-.009-.062-.016-.093-.025"/>
  <path class="st2" d="M46.98,36.44c-.509-.553-1.1-1.126-1.75-1.697-1.109-.979-2.392-1.951-3.739-2.813-1.369-.877-2.806-1.637-4.193-2.169"/>
  <path class="st2" d="M54.957,50.421s-.035-.01-.099-.033c-.429-.147-2.2-.778-4.184-1.858-.91-.496-1.864-1.087-2.755-1.768-.358-.273-.691-.545-.998-.811-1.327-1.156-2.165-2.229-2.546-3.089"/>
  <path class="st2" d="M57.441,46.882s-2.058-.667-4.479-2.047c-.961-.548-1.98-1.21-2.95-1.987-.385-.308-.742-.614-1.073-.915-1.456-1.326-2.373-2.556-2.791-3.543"/>
  <path class="st2" d="M59.838,43.418s-2.153-.703-4.664-2.149c-.994-.572-2.046-1.263-3.042-2.073-.397-.323-.766-.643-1.106-.957-1.497-1.385-2.442-2.672-2.872-3.701"/>
  <path class="st2" d="M62.379,39.368s-2.15-.727-4.643-2.188c-.982-.577-2.019-1.266-2.999-2.073-.391-.321-.752-.637-1.086-.949-1.479-1.383-2.41-2.667-2.833-3.695"/>
  <path class="st2" d="M56.513,30.389s-.004.004-.006.007c-.868,1.006-1.851,2.305-2.856,3.761-.877,1.271-1.771,2.661-2.625,4.082-.74,1.23-1.447,2.481-2.085,3.696-.731,1.386-1.371,2.724-1.861,3.924"/>
  <path class="st2" d="M60.375,33.121c-.846,1.265-1.735,2.636-2.639,4.058-.847,1.332-1.709,2.711-2.564,4.088-.746,1.2-1.488,2.399-2.21,3.567-.776,1.257-1.532,2.478-2.251,3.625"/>
  <path class="st2" d="M51.77,28.779c-.528-.584-1.142-1.192-1.816-1.796-1.192-1.071-2.576-2.139-4.029-3.074-1.392-.898-2.847-1.679-4.25-2.227"/>
  <path class="st2" d="M54.606,25.509c-.657-.758-1.494-1.58-2.433-2.394-1.277-1.108-2.746-2.206-4.21-3.118-1.563-.976-3.124-1.739-4.446-2.085-.02-.006-.039-.009-.059-.015"/>
  <path class="st2" d="M54.411,18.97c-.694,1.34-1.435,2.714-2.237,4.145-.692,1.24-1.431,2.525-2.219,3.867-.724,1.232-1.488,2.514-2.299,3.855-.724,1.197-1.486,2.444-2.288,3.747"/>
  <path class="st2" d="M50.012,15.945c-.602,1.212-1.299,2.592-2.048,4.052-.648,1.263-1.336,2.586-2.039,3.909-.718,1.358-1.449,2.718-2.162,4.017-.751,1.367-1.482,2.667-2.16,3.83"/>
  <path class="st2" d="M58.467,24.435c-.03.084-1.055,2.718-2.931,4.88"/>
  <path class="st2" d="M55.339,25.461c.849-1.119,1.535-2.336,2.152-3.415"/>
  <path class="st2" d="M37.3,29.76l-12.992,24.745c-.129.246-.438.342-.685.213l-.054-.027c-.247-.131-.343-.437-.214-.685L44.624,13.496c.129-.246.438-.341.685-.213l.054.028c.221.116.322.377.244.608-.008.026-.018.05-.03.075l-2.057,3.918-1.948,3.713-2.127,4.051-2.142,4.082-.002.002h-.001Z"/>
  <path class="st2" d="M49.229,32.341c-.469-.493-.997-.999-1.574-1.503-1.145-1.008-2.478-2.014-3.892-2.914-1.395-.888-2.869-1.672-4.321-2.25-.144-.06-.287-.114-.43-.167"/>
  <path class="st0" d="M3.226,35.073v.098s.838,1.676,2.311,4.201l.084-.004s2.15-.727,4.643-2.188c-.904-1.422-1.792-2.793-2.639-4.058l-.003-.005c-2.329,1.286-4.396,1.957-4.396,1.957h0Z"/>
  <path class="st1" d="M5.621,39.369l-.084.005c.706,1.206,1.554,2.606,2.526,4.111l.099-.065s2.153-.703,4.664-2.149c-.854-1.377-1.717-2.756-2.564-4.088-2.493,1.461-4.643,2.188-4.643,2.188h.002v-.002Z"/>
  <path class="st1" d="M7.622,33.118l.003.005c.846,1.265,1.735,2.636,2.639,4.058.983-.577,2.019-1.266,2.999-2.073.391-.321.752-.637,1.086-.949-1.005-1.455-1.988-2.754-2.856-3.761-.369.333-.776.673-1.228,1.018-.855.653-1.768,1.222-2.642,1.703h-.002,0Z"/>
  <path class="st0" d="M8.162,43.417l-.099.065c.724,1.119,1.515,2.295,2.367,3.492l.129-.093s2.058-.667,4.479-2.047c-.724-1.169-1.464-2.367-2.21-3.567-2.513,1.448-4.664,2.149-4.664,2.149h-.002Z"/>
  <path class="st0" d="M9.923,22.678c-.522.783-.572,1.346-.375,1.751.305.64,1.217.888,1.842.982.424.063.867.054,1.268.075v-.025c-.847-1.119-1.533-2.335-2.15-3.415l-.078-.062c-.188.239-.358.47-.509.694,0,0,.002,0,.002,0Z"/>
  <path class="st1" d="M9.548,24.431l-.014.007c.03.083,1.055,2.717,2.931,4.878l.062.056c1.333-1.476,1.769-2.708,1.396-3.36-.012-.022-.026-.042-.039-.062-.123-.179-.298-.287-.505-.356-.211-.068-.456-.095-.719-.107-.402-.021-.846-.01-1.268-.075-.624-.095-1.536-.341-1.842-.982h-.002Z"/>
  <path class="st1" d="M10.559,46.882l-.129.093c.802,1.128,1.656,2.272,2.556,3.405l.155.007c.429-.147,2.2-.778,4.184-1.858l-.038-.069c-.719-1.147-1.474-2.368-2.251-3.626-2.421,1.382-4.479,2.047-4.479,2.047h.002,0Z"/>
  <path class="st1" d="M10.431,21.984l.078.061c.617,1.08,1.301,2.296,2.151,3.415v.026c.262.012.507.039.718.107l.017-.084c.657-.758,1.494-1.58,2.433-2.394-.802-1.431-1.544-2.806-2.237-4.145l-.06-.071c-1.253,1.045-2.331,2.118-3.098,3.085,0,0-.002,0-.002,0Z"/>
  <path class="st0" d="M10.263,37.179c.847,1.332,1.709,2.711,2.564,4.088.995-.572,2.046-1.263,3.042-2.073.397-.323.766-.643,1.106-.957-.855-1.419-1.75-2.811-2.625-4.082-.334.312-.695.629-1.086.949-.979.807-2.016,1.496-2.999,2.073h-.002v.002Z"/>
  <path class="st0" d="M13.394,25.509l-.017.084c.208.068.382.177.505.356.014.021.026.041.039.062l.059-.014c.797.96,1.533,1.9,2.21,2.812l.039-.028c.528-.584,1.142-1.193,1.816-1.796-.788-1.343-1.526-2.627-2.219-3.867-.937.812-1.774,1.634-2.433,2.394v-.002h.001Z"/>
  <path class="st0" d="M13.529,18.899l.06.071c.694,1.34,1.435,2.714,2.237,4.145,1.277-1.108,2.746-2.206,4.21-3.118-.749-1.46-1.446-2.84-2.048-4.052l-.062-.111c-1.556.889-3.074,1.961-4.396,3.065h-.002.001Z"/>
  <path class="st0" d="M13.922,26.011c.373.652-.063,1.883-1.396,3.36-.3.332-.642.674-1.034,1.026.868,1.006,1.851,2.305,2.856,3.761,1.479-1.383,2.41-2.667,2.833-3.695l.132-.093c-.357-.511-.73-1.032-1.125-1.562-.677-.912-1.413-1.852-2.21-2.812l-.059.014.003.002h0Z"/>
  <path class="st1" d="M12.826,41.267c.746,1.2,1.488,2.399,2.21,3.567.961-.548,1.98-1.211,2.95-1.987.385-.308.742-.614,1.073-.915-.638-1.214-1.347-2.465-2.085-3.696-.34.314-.707.634-1.106.957-.996.81-2.048,1.5-3.042,2.073h0Z"/>
  <path class="st1" d="M17.182,30.462c-.424,1.027-1.354,2.31-2.833,3.695.877,1.271,1.771,2.661,2.625,4.082,1.497-1.385,2.442-2.672,2.872-3.701l.09-.051c-.384-.665-.805-1.361-1.264-2.082-.42-.656-.871-1.335-1.357-2.034l-.132.093-.002-.003h.001Z"/>
  <path class="st1" d="M16.228,28.779l-.039.028c.394.532.769,1.053,1.125,1.562.486.698.937,1.377,1.357,2.033l.098-.062c.469-.493.997-.999,1.574-1.503-.811-1.343-1.577-2.624-2.299-3.855-.674.604-1.288,1.21-1.816,1.796h0Z"/>
  <path class="st0" d="M15.038,44.835c.776,1.257,1.532,2.478,2.251,3.626l.038.069c.91-.496,1.864-1.087,2.755-1.768.358-.273.691-.545.997-.811l-.156-.092c-.49-1.2-1.13-2.537-1.861-3.924-.33.3-.688.605-1.073.915-.969.777-1.989,1.437-2.95,1.987h0v-.002Z"/>
  <path class="st1" d="M15.825,23.115c.692,1.24,1.431,2.525,2.219,3.867,1.192-1.071,2.576-2.139,4.029-3.074-.703-1.323-1.39-2.646-2.039-3.909-1.464.912-2.932,2.01-4.21,3.118h0v-.002Z"/>
  <path class="st1" d="M17.925,15.834l.062.111c.602,1.212,1.298,2.592,2.048,4.052,1.563-.976,3.123-1.739,4.446-2.085l-2.057-3.918c-.012-.026-.024-.05-.03-.075-1.429.374-2.967,1.059-4.469,1.915Z"/>
  <path class="st0" d="M19.847,34.537c-.43,1.03-1.375,2.316-2.872,3.701.74,1.23,1.447,2.481,2.085,3.696,1.456-1.326,2.373-2.556,2.791-3.543l.101-.047c-.272-.587-.584-1.222-.939-1.901-.322-.617-.678-1.272-1.076-1.958l-.09.051h0Z"/>
  <path class="st0" d="M18.771,32.341l-.098.062c.46.722.88,1.418,1.264,2.082.397.686.755,1.34,1.076,1.958l.008-.005c.509-.553,1.1-1.126,1.75-1.697l-.137-.156c-.802-1.304-1.563-2.55-2.288-3.747-.576.505-1.104,1.011-1.574,1.503h-.001Z"/>
  <path class="st0" d="M18.044,26.983c.724,1.232,1.488,2.514,2.299,3.855,1.145-1.008,2.478-2.014,3.892-2.914-.713-1.299-1.444-2.66-2.162-4.018-1.453.936-2.838,2.003-4.029,3.074h0v.003Z"/>
  <path class="st1" d="M21.851,38.392c-.418.985-1.335,2.217-2.791,3.543.731,1.386,1.371,2.724,1.861,3.924l.156.092c1.327-1.156,2.165-2.229,2.546-3.089l.036-.076s-.421-1.672-1.708-4.44l-.101.047h.001Z"/>
  <path class="st0" d="M20.035,19.997c.648,1.263,1.336,2.586,2.039,3.909,1.392-.898,2.847-1.679,4.25-2.227l.105-.056-1.948-3.713c-1.323.345-2.883,1.108-4.446,2.085h0v.002Z"/>
  <path class="st1" d="M20.343,30.839c.724,1.197,1.486,2.444,2.288,3.747l.137.156c1.109-.979,2.392-1.951,3.739-2.813l-.111-.173c-.679-1.162-1.41-2.463-2.161-3.83-1.414.898-2.747,1.906-3.892,2.914v-.002h0Z"/>
  <path class="st1" d="M26.429,21.625l2.127,4.051,2.142,4.082,12.992,24.745c.129.246.438.342.685.213l.054-.027c.247-.131.343-.437.214-.685L23.376,13.496c-.129-.246-.438-.341-.685-.213l-.054.028c-.221.116-.322.377-.244.608.008.026.018.05.03.075l2.057,3.918,1.948,3.713h.001Z"/>
  <path class="st1" d="M22.073,23.908c.718,1.358,1.449,2.718,2.162,4.017,1.395-.888,2.869-1.672,4.321-2.25l-2.127-4.051-.105.056c-1.404.548-2.859,1.329-4.25,2.227h0Z"/>
  <path class="st0" d="M24.236,27.926c.751,1.367,1.482,2.667,2.16,3.83l.111.173c1.369-.877,2.806-1.637,4.193-2.169l-2.142-4.082c-1.452.578-2.926,1.362-4.321,2.25h0v-.002Z"/>
  <path class="st2" d="M13.979,25.997c.797.96,1.533,1.9,2.21,2.812.394.532.769,1.053,1.125,1.562.486.698.937,1.377,1.357,2.034.46.722.88,1.418,1.264,2.082.397.686.755,1.34,1.076,1.958.355.679.667,1.314.939,1.901,1.286,2.768,1.708,4.44,1.708,4.44"/>
  <path class="st2" d="M3.226,35.172s.838,1.676,2.311,4.201c.706,1.206,1.554,2.606,2.526,4.111.724,1.119,1.515,2.295,2.367,3.492.802,1.128,1.656,2.272,2.556,3.405"/>
  <path class="st2" d="M3.226,35.073s2.066-.67,4.396-1.957c.876-.481,1.787-1.051,2.642-1.703.45-.344.859-.685,1.228-1.018.391-.351.734-.694,1.034-1.026,1.333-1.476,1.769-2.708,1.396-3.36-.012-.022-.026-.042-.039-.061-.123-.179-.298-.287-.505-.356-.211-.068-.456-.095-.719-.107-.402-.021-.846-.01-1.268-.075-.624-.095-1.536-.341-1.842-.982-.197-.407-.147-.969.375-1.751.149-.224.32-.455.509-.694.767-.966,1.845-2.04,3.098-3.085,1.322-1.104,2.841-2.176,4.396-3.065,1.501-.856,3.039-1.541,4.469-1.915.03-.009.062-.016.093-.025"/>
  <path class="st2" d="M21.02,36.44c.509-.553,1.1-1.126,1.75-1.697,1.109-.979,2.392-1.951,3.739-2.813,1.369-.877,2.806-1.637,4.193-2.169"/>
  <path class="st2" d="M13.042,50.421s.035-.01.099-.033c.429-.147,2.2-.778,4.184-1.858.91-.496,1.864-1.087,2.755-1.768.358-.273.691-.545.998-.811,1.327-1.156,2.165-2.229,2.546-3.089"/>
  <path class="st2" d="M10.559,46.882s2.058-.667,4.479-2.047c.962-.548,1.98-1.21,2.951-1.987.385-.308.742-.614,1.073-.915,1.457-1.326,2.373-2.556,2.791-3.543"/>
  <path class="st2" d="M8.162,43.418s2.153-.703,4.664-2.149c.995-.572,2.046-1.263,3.042-2.073.397-.323.766-.643,1.106-.957,1.497-1.385,2.442-2.672,2.872-3.701"/>
  <path class="st2" d="M5.621,39.368s2.15-.727,4.643-2.188c.982-.577,2.019-1.266,2.998-2.073.391-.321.752-.637,1.086-.949,1.479-1.383,2.41-2.667,2.833-3.695"/>
  <path class="st2" d="M11.486,30.389s.005.004.006.007c.868,1.006,1.851,2.305,2.856,3.761.877,1.271,1.771,2.661,2.626,4.082.74,1.23,1.447,2.481,2.085,3.696.731,1.386,1.371,2.724,1.861,3.924"/>
  <path class="st2" d="M7.625,33.121c.846,1.265,1.735,2.636,2.639,4.058.847,1.332,1.709,2.711,2.564,4.088.746,1.2,1.488,2.399,2.21,3.567.776,1.257,1.532,2.478,2.251,3.625"/>
  <path class="st2" d="M16.228,28.779c.528-.584,1.142-1.192,1.816-1.796,1.192-1.071,2.576-2.139,4.029-3.074,1.392-.898,2.847-1.679,4.25-2.227"/>
  <path class="st2" d="M13.394,25.509c.657-.758,1.494-1.58,2.433-2.394,1.277-1.108,2.746-2.206,4.21-3.118,1.563-.976,3.124-1.739,4.446-2.085.019-.006.039-.009.059-.015"/>
  <path class="st2" d="M13.589,18.97c.694,1.34,1.435,2.714,2.237,4.145.692,1.24,1.431,2.525,2.219,3.867.724,1.232,1.488,2.514,2.299,3.855.724,1.197,1.486,2.444,2.288,3.747"/>
  <path class="st2" d="M17.987,15.945c.602,1.212,1.299,2.592,2.048,4.052.649,1.263,1.336,2.586,2.039,3.909.718,1.358,1.449,2.718,2.162,4.017.751,1.367,1.482,2.667,2.161,3.83"/>
  <path class="st2" d="M9.531,24.435c.03.084,1.055,2.718,2.931,4.88"/>
  <path class="st2" d="M12.659,25.461c-.849-1.119-1.535-2.336-2.151-3.415"/>
  <path class="st2" d="M30.701,29.76l12.992,24.745c.129.246.438.342.685.213l.054-.027c.247-.131.343-.437.214-.685L23.376,13.496c-.129-.246-.438-.341-.685-.213l-.054.028c-.221.116-.322.377-.244.608.008.026.018.05.03.075l2.057,3.918,1.948,3.713,2.127,4.051,2.142,4.082.002.002h.002Z"/>
  <path class="st2" d="M18.771,32.341c.469-.493.997-.999,1.574-1.503,1.145-1.008,2.478-2.014,3.892-2.914,1.395-.888,2.869-1.672,4.321-2.25.144-.06.287-.114.43-.167"/>
</svg>