<?xml version="1.0" encoding="UTF-8"?>
<svg id="Layer_1" xmlns="http://www.w3.org/2000/svg" version="1.1" viewBox="0 0 68 68">
  <!-- Generator: Adobe Illustrator 30.0.0, SVG Export Plug-In . SVG Version: 2.1.1 Build 123)  -->
  <defs>
    <style>
      .st0 {
        fill: #f25730;
      }

      .st1 {
        fill: #fffaf0;
      }

      .st2 {
        fill: #0164bf;
      }

      .st3 {
        fill: none;
        stroke: #002140;
        stroke-linecap: round;
        stroke-linejoin: round;
        stroke-width: 1px;
      }
    </style>
  </defs>
  <path class="st1" d="M34.228,60.012c14.118,0,25.563-11.445,25.563-25.563s-11.445-25.563-25.563-25.563-25.563,11.445-25.563,25.563,11.445,25.563,25.563,25.563Z"/>
  <path class="st2" d="M34.285,51.822c9.531,0,17.257-7.726,17.257-17.257s-7.726-17.257-17.257-17.257-17.257,7.726-17.257,17.257,7.726,17.257,17.257,17.257Z"/>
  <path class="st0" d="M34.028,41.883c3.995,0,7.234-3.239,7.234-7.234s-3.239-7.234-7.234-7.234-7.234,3.239-7.234,7.234,3.239,7.234,7.234,7.234Z"/>
  <path class="st3" d="M34.097,52.022c9.699,0,17.562-7.863,17.562-17.562s-7.863-17.562-17.562-17.562-17.562,7.863-17.562,17.562,7.863,17.562,17.562,17.562Z"/>
  <path class="st3" d="M34.097,42.13c4.236,0,7.67-3.434,7.67-7.67s-3.434-7.67-7.67-7.67-7.67,3.434-7.67,7.67,3.434,7.67,7.67,7.67Z"/>
  <path class="st3" d="M34.096,60.364c14.306,0,25.904-11.598,25.904-25.904s-11.598-25.904-25.904-25.904-25.904,11.598-25.904,25.904,11.598,25.904,25.904,25.904Z"/>
</svg>