<?xml version="1.0" encoding="UTF-8"?>
<svg id="Layer_1" xmlns="http://www.w3.org/2000/svg" version="1.1" viewBox="0 0 68 68">
  <!-- Generator: Adobe Illustrator 30.0.0, SVG Export Plug-In . SVG Version: 2.1.1 Build 123)  -->
  <defs>
    <style>
      .st0 {
        fill: #5ab0ff;
      }

      .st1 {
        fill: #fffaf0;
      }

      .st2 {
        fill: #002140;
      }

      .st3, .st4 {
        fill: none;
        stroke: #002140;
        stroke-linecap: round;
        stroke-linejoin: round;
      }

      .st5 {
        fill: #50eef6;
      }

      .st6 {
        fill: #e5fafe;
      }

      .st7 {
        fill: #03d47c;
      }

      .st8 {
        fill: #ff7101;
      }

      .st4 {
        stroke-width: .667px;
      }
    </style>
  </defs>
  <path class="st5" d="M49.152,19.108h-28.976s-4.277,2.507-5.9,10.177c-1.623,7.667,4.35,16.96,5.31,17.843s7.89,6.34,15.04,5.973c7.153-.37,19.466-6.49,19.98-17.99.517-11.503-5.457-16-5.457-16,0,0,.003-.003.003-.003Z"/>
  <path class="st6" d="M46.459,27.808c1.283,0,2.323-1.04,2.323-2.323s-1.04-2.323-2.323-2.323-2.323,1.04-2.323,2.323,1.04,2.323,2.323,2.323Z"/>
  <path class="st6" d="M45.905,32.068c.764,0,1.383-.619,1.383-1.383s-.619-1.383-1.383-1.383-1.383.619-1.383,1.383.619,1.383,1.383,1.383Z"/>
  <path class="st6" d="M20.249,38.315c1.283,0,2.323-1.04,2.323-2.323s-1.04-2.323-2.323-2.323-2.323,1.04-2.323,2.323,1.04,2.323,2.323,2.323Z"/>
  <path class="st6" d="M18.319,11.268s-1.5.613-1.83,2.383c-.333,1.77,1.99,2.877,1.99,2.877l.663,2.213h30.01l.737-.773-.22-1.217s2.323-1.217,2.213-2.987c-.11-1.77-2.433-2.877-2.433-2.877l-31.13.38h0Z"/>
  <path class="st6" d="M22.459,49.708l.11,1.55-.22,1.437s-.443,4.313,10.727,4.533c11.17.22,12.94-3.98,12.94-3.98l.11-2.213v-1.66s-6.747,3.797-11.503,3.723c-4.757-.073-11.393-2.397-12.167-3.393,0,0,.003.003.003.003Z"/>
  <path class="st0" d="M19.659,46.758s8.037,6.71,15.41,6.49c7.373-.22,15.04-7.963,15.04-7.963,0,0,.663-.443-2.803-.147-3.467.293-13.05,2.137-16.736,2.063-3.687-.073-10.913-.443-10.913-.443h.003,0Z"/>
  <path class="st2" d="M34.349,32.355s1.773-1.483,2.987-1.457c1.213.023,1.7,0,1.7,0l-1.993-4.907-.487-.51-.9-.17-.39-.777s-.73-.05-.753.317c-.023.363.317,1.943.317,1.943,0,0-1.093.657-1.043,1.117.05.46.243,1.287.243,1.287,0,0-.487.73-.437.85s.29.753.29.753c0,0-.51.753-.363,1.07s.533.753.533.753l.29-.267.007-.003h-.001Z"/>
  <path class="st2" d="M34.299,36.921s.973,1.167,1.41,1.383c.437.217,1.967.34,1.967.34l-1.143,3.597-1.19.34-.487.777-.703-.34-.073-.947.243-.56-.487-.34-.073-.703.193-.923-.363-.753.12-1.043s0,.437,0-.097.583-.73.583-.73h.003Z"/>
  <path class="st3" d="M49.008,18.915c3.42,3.627,5.513,8.513,5.513,13.89,0,11.183-9.063,20.246-20.246,20.246s-20.246-9.067-20.246-20.25c0-5.35,2.073-10.213,5.463-13.833"/>
  <path class="st3" d="M45.939,49.461c.087.23.133.467.133.707,0,2.62-5.34,4.747-11.93,4.747s-11.93-2.123-11.93-4.747c0-.307.073-.603.21-.893"/>
  <path class="st3" d="M45.779,51.331c.19.337.29.687.29,1.043,0,2.62-5.34,4.747-11.93,4.747s-11.93-2.123-11.93-4.747c0-.327.083-.647.243-.957l.08-.113"/>
  <path class="st3" d="M49.139,11.021h-29.726c-1.548,0-2.803,1.255-2.803,2.803s1.255,2.803,2.803,2.803h29.726c1.548,0,2.803-1.255,2.803-2.803s-1.255-2.803-2.803-2.803Z"/>
  <path class="st3" d="M48.825,16.611h-29.066c-.635,0-1.15.515-1.15,1.15v.003c0,.635.515,1.15,1.15,1.15h29.066c.635,0,1.15-.515,1.15-1.15v-.003c0-.635-.515-1.15-1.15-1.15Z"/>
  <path class="st2" d="M34.035,39.221s-.51-.043-.503-.41.247-.79.257-.84-.337-.81-.26-1.023c.077-.213.373-.43.373-.43,0,0,.753.723.88.783l-.74,1.92h-.007Z"/>
  <path class="st2" d="M36.595,31.045l-1.413-3.413s-.167-.923-.867-.833-.477,1.423-.343,1.79c.133.367,1.18,3.037,1.18,3.037,0,0,.957-.567,1.447-.577l-.003-.003h-.001Z"/>
  <path class="st2" d="M34.502,29.968s-.423.163-.687.447c.03.047.377.51-.04.767,0,0-.333.523-.157.823.617-.59,1.297-.997,1.297-.997l-.417-1.04h.004Z"/>
  <path class="st2" d="M35.122,42.988l-.843-.943s-.313.673-.197.997c.12.323.44.387.723.35,0,0,.363-.16.317-.403h0Z"/>
  <path class="st8" d="M32.472,34.261s-.667-.133-.593-1.097c.09-.727.387-2.757.387-3.023s-.193-1.26-2.757-1.333c-2.563-.073-3.587.237-3.663.933-.073.697,1.277,1.127,1.69,1.247.413.12,3.397.74,3.633,3.587,0,0,.133,2.283-1.57,3.217,0,0-1.497.787-2.477,1.037-.593.103-1.26.593-1.29.903-.03.31.03.847,1.277,1.023,1.247.177,3.93.253,4.773-.473.49-.417.473-1.2.327-1.75-.147-.55-.43-2.24-.193-2.787.12-.327.607-.387.993-.223s1.587,1.733,1.587,1.733c0,0,1.083,1.437,2.92,1.41,1.84-.03,2.877-1.483,3.053-1.677.177-.193.49-.43.49-.43l.253-2.477s-.46-2.967-3.337-3.187c-2.877-.22-4.463,2.46-4.463,2.46,0,0-.503.933-1.037.903l-.003.003h0Z"/>
  <path class="st1" d="M37.765,32.811l-.04.223.243.633s0,.88,1.143.87c1.147-.01,1.423-1.18,1.333-1.547s-1.36-.977-1.36-.977l-1.32.8v-.003h0Z"/>
  <path class="st7" d="M39.622,35.258s.61-.29.733-.39,1.19-1.013,1.723-1.013,1.08.2,1.057.857c-.023.657-.88.643-.88.643,0,0,.623.267.51,1.033-.113.767-1.547.577-1.923.21-.377-.367-.813-.98-.933-1.09s-.143-.29-.29-.257c0,0,.003.007.003.007Z"/>
  <path class="st4" d="M39.436,35.238c.883,0,1.743-1.39,2.73-1.39.403,0,.96.177.96.833s-.91.683-.91.683c0,0,.58.177.58.81s-.683.733-.937.733c-1.567,0-1.617-1.567-2.427-1.67"/>
  <path class="st4" d="M42.215,35.361s-1.947.077-2.503-.1"/>
  <path class="st4" d="M32.516,35.415c1.513-.013,1.8,3.237,5.027,3.237,2.247,0,3.09-1.98,3.393-1.993"/>
  <path class="st4" d="M32.515,34.248s-.623.043-.623-.903.417-2.477.387-3.173c-.03-.697-.777-1.367-3.093-1.367s-3.353.21-3.353,1.01c0,1.587,5.323.74,5.323,5.04"/>
  <path class="st4" d="M32.515,35.415s-.623-.043-.623.903.417,2.477.387,3.173c-.03.697-.777,1.367-3.093,1.367s-3.353-.21-3.353-1.01c0-1.587,5.323-.74,5.323-5.04"/>
  <path class="st4" d="M41.329,34.131c-.207-1.13-1.07-3.22-3.63-3.22-3.627,0-4.183,3.337-5.183,3.337"/>
  <path class="st2" d="M39.595,32.335c-.393,0-.713.32-.713.713,0,.063.01.127.027.187l.477-.083-.23.457c.123.097.277.153.443.153.393,0,.713-.32.713-.713s-.32-.713-.713-.713h-.004Z"/>
  <path class="st2" d="M40.422,32.888c-.007-.04-.013-.08-.047-.107-.027-.02-.06-.023-.093-.023-.063,0-.127-.003-.19-.007-.017,0-.033,0-.047.007-.03.017-.033.057-.023.09.02.07.077.127.14.167s.137.06.203.087c.01.003.023.01.03.017.027.02.027.063.04.09.053-.057-.007-.247-.017-.317l.003-.003h0Z"/>
  <path class="st4" d="M34.979,35.715s.86.31,1.61.013"/>
  <path class="st4" d="M34.979,34.648s.86.31,1.61.013"/>
  <path class="st4" d="M39.092,31.158c-.203-.557-.41-1.11-.613-1.667l-1.023-2.773c-.113-.303-.21-.813-.453-1.027-.1-.09-.23-.137-.363-.157-.34-.053-.757.017-.913-.387-.11-.28-.19-.56-.493-.69-.26-.113-.637-.07-.807.177s-.117.6-.05.873c.147.607,2.2,5.497,2.2,5.497"/>
  <path class="st4" d="M34.966,27.078c-.187-.367-.79-.383-1.01-.043-.257.4-.127,1.017.017,1.433.217.627,1.03,2.793,1.167,3.157"/>
  <path class="st4" d="M34.249,29.361s-.663.11-.603.613c.06.507.367.653.333.933-.033.28-.907.89.113,1.67"/>
  <path class="st4" d="M37.738,38.661l-.163.447-.86,2.33c-.093.257-.177.683-.38.863-.083.073-.193.117-.307.133-.287.047-.637-.013-.77.323-.093.237-.16.47-.413.58-.217.093-.537.06-.677-.15-.14-.21-.097-.503-.04-.733.1-.41,1.23-3.137,1.673-4.197"/>
  <path class="st4" d="M34.619,41.134c-.157.31-.663.323-.847.037-.217-.337-.107-.853.013-1.203.163-.48.75-2.033.937-2.537"/>
  <path class="st4" d="M34.019,39.218s-.557-.093-.507-.517c.053-.423.31-.55.28-.783-.03-.233-.76-.747.097-1.403"/>
  <path class="st4" d="M39.049,34.491c.637,0,1.153-.516,1.153-1.153s-.516-1.153-1.153-1.153-1.153.516-1.153,1.153.516,1.153,1.153,1.153Z"/>
  <path class="st3" d="M19.419,46.424c14.837,2.59,25.526-2.01,30.84-1.427"/>
</svg>