<?xml version="1.0" encoding="UTF-8"?>
<svg id="Layer_1" xmlns="http://www.w3.org/2000/svg" version="1.1" viewBox="0 0 68 68">
  <!-- Generator: Adobe Illustrator 30.0.0, SVG Export Plug-In . SVG Version: 2.1.1 Build 123)  -->
  <defs>
    <style>
      .st0 {
        fill: #f25730;
      }

      .st1 {
        fill: #fffaf0;
      }

      .st2 {
        fill: #ffed8f;
      }

      .st3 {
        fill: #d18000;
      }

      .st4 {
        fill: none;
        stroke: #002140;
        stroke-linecap: round;
        stroke-linejoin: round;
        stroke-width: 1px;
      }

      .st5 {
        fill: #722b03;
      }
    </style>
  </defs>
  <path class="st5" d="M45.157,37.73l18.605-.565v-3.977h-17.894l-22.868-17.188L4.248,33.47l2.843,3.125,16.332-14.915,21.734,16.049Z"/>
  <path class="st0" d="M8.132,29.54l6.062-5.681h-6.25l.188,5.681Z"/>
  <path class="st1" d="M7.562,37.118v15.244h55.112v-15.056h-17.517l-21.734-15.625-15.861,15.437Z"/>
  <path class="st0" d="M20.383,41.005v10.985h7.954v-10.886l-7.954-.098Z"/>
  <path class="st2" d="M26.835,46.3c.444,0,.805-.36.805-.805s-.36-.805-.805-.805-.805.36-.805.805.36.805.805.805Z"/>
  <path class="st2" d="M27.451,28.688h-6.156v7.479h6.156v-7.479Z"/>
  <path class="st2" d="M17.035,40.808h-6.156v7.479h6.156v-7.479Z"/>
  <path class="st2" d="M38.812,41.095h-6.156v7.479h6.156v-7.479Z"/>
  <path class="st3" d="M59.36,42.417h-13.069v9.846h13.069v-9.846Z"/>
  <path class="st4" d="M63.894,33.051l-17.993-.047-22.727-16.901L4,33.667l3.266,3.078,16.1-15.338,21.589,16.002,19.033-.188-.094-4.17Z"/>
  <path class="st4" d="M7.267,36.745v15.531h55.587v-14.679"/>
  <path class="st4" d="M46.09,51.895v-9.564h13.352v9.469"/>
  <path class="st4" d="M46.188,45.838h12.877"/>
  <path class="st4" d="M46.188,49.057h12.877"/>
  <path class="st4" d="M20.76,51.377v-10.42h7.954v10.3"/>
  <path class="st4" d="M26.963,46.732c.549,0,.993-.445.993-.993s-.445-.993-.993-.993-.993.445-.993.993.445.993.993.993Z"/>
  <path class="st4" d="M16.928,40.722h-6.156v7.671h6.156v-7.671Z"/>
  <path class="st4" d="M39.228,40.722h-6.156v7.671h6.156v-7.671Z"/>
  <path class="st4" d="M27.673,28.65h-6.156v7.671h6.156v-7.671Z"/>
  <path class="st4" d="M7.93,29.549v-5.775h6.25"/>
  <path class="st4" d="M8.405,26.33h1.134"/>
</svg>