<?xml version="1.0" encoding="UTF-8"?>
<svg id="Layer_1" xmlns="http://www.w3.org/2000/svg" version="1.1" viewBox="0 0 68 68">
  <!-- Generator: Adobe Illustrator 30.0.0, SVG Export Plug-In . SVG Version: 2.1.1 Build 123)  -->
  <defs>
    <style>
      .st0 {
        fill: #cf4cd9;
      }

      .st1 {
        fill: none;
        stroke: #002140;
        stroke-linecap: round;
        stroke-linejoin: round;
      }

      .st2 {
        fill: #e96df2;
      }
    </style>
  </defs>
  <path class="st2" d="M61.193,39.317c0,2.367-1.473,4.393-3.571,5.238v8.283c0,.643-.527,1.162-1.181,1.162h-5.576c-.654,0-1.181-.519-1.181-1.162v-5.45h.039c.585,0,1.059-.466,1.059-1.042v-3.495c0-.351-.176-.663-.449-.855l-.029-.019-.624-.403v-2.261c0-3.131,2.576-5.661,5.752-5.661,1.141,0,2.205.326,3.103.893,1.595,1.004,2.649,2.766,2.649,4.768l.01.005ZM57.076,39.188c0-.783-.644-1.417-1.439-1.417s-1.439.634-1.439,1.417.644,1.416,1.439,1.416,1.439-.634,1.439-1.416Z"/>
  <path class="st0" d="M55.637,40.604c.795,0,1.439-.634,1.439-1.417s-.644-1.416-1.439-1.416-1.439.634-1.439,1.416.644,1.417,1.439,1.417Z"/>
  <path class="st0" d="M52.656,31.102c.893.48,5.454,2.866,5.879,3.447-.893-.567-1.956-.893-3.103-.893-3.176,0-5.752,2.535-5.752,5.661v2.262l-6.342-4.11.024-.038c-.502-2.185.337-4.912,2.308-6.28.956-.663,2.103-.96,3.259-.97,1.307-.014,2.634.331,3.722.917l.005.005Z"/>
  <path class="st2" d="M50.784,42.851v3.495c0,.576-.473,1.042-1.059,1.042h-19.792v-5.579h19.792c.215,0,.415.062.581.168l.029.019c.273.187.449.499.449.855Z"/>
  <path class="st2" d="M49.685,41.578l.625.403c-.166-.106-.366-.168-.58-.168h-19.792v-2.492c0-.663-.117-1.296-.327-1.887h13.674l.059.038,6.342,4.11v-.005Z"/>
  <path class="st2" d="M48.212,17.336c2.712,2.65,2.073,5.618,1.566,7.649-.844,3.39-.844,5.195-.844,5.195-1.161.014-2.307.312-3.259.975-1.976,1.368-2.815,4.101-2.307,6.28l-.024.038-.059-.038h-13.674c-.512-1.436-1.6-2.602-2.99-3.241l-4.747-2.9c-.785-.475-1.722-.773-2.688-.869v-.029s.22-2.098-.624-5.493c-.507-2.031-1.317-4.782,1.395-7.438.717-.701,2.098-2.012,5.547-2.012h17.216c2.395,0,3.776.571,4.63,1.157.005,0,.005.005.005.005.371.254.644.509.864.725l-.005-.005Z"/>
  <path class="st2" d="M49.686,47.432v5.786h-19.748l-.059-.019c.039-.115.059-.23.059-.36v-5.45h19.748v.043Z"/>
  <path class="st0" d="M42.709,15.449h-17.216c-3.449,0-4.825,1.306-5.547,2.012-2.712,2.65-1.903,5.406-1.395,7.438.844,3.39.629,5.493.629,5.493v.029c-2.161-.221-4.473.509-5.654,2.286l-.049-.034s.215-3.308-.059-6.228c-.166-1.796-1.815-4.173-1.551-7.265.263-3.092,2.449-4.888,4.756-5.618,1.781-.562,4.439-.639,4.439-.639l15.172-.125s3.951.096,5.654.73c3.146,1.167,5.317,2.972,5.449,3.083-.859-.586-2.234-1.157-4.63-1.157v-.005Z"/>
  <path class="st2" d="M29.606,37.43c.215.591.327,1.224.327,1.887v13.521c0,.125-.02.245-.059.36-.151.466-.6.802-1.122.802h-5.576c-.229,0-.444-.062-.624-.178-.332-.202-.556-.567-.556-.984v-8.282c-.488-.197-.941-.461-1.351-.773-1.351-1.037-2.22-2.65-2.22-4.465,0-3.131,2.576-5.661,5.752-5.661.873,0,1.698.192,2.434.533,1.39.639,2.473,1.81,2.99,3.246l.005-.005ZM25.645,39.278c0-.783-.644-1.416-1.439-1.416s-1.439.634-1.439,1.416.644,1.417,1.439,1.417,1.439-.634,1.439-1.417Z"/>
  <path class="st0" d="M21.869,31.284l4.747,2.9c-.737-.341-1.566-.533-2.434-.533-3.181,0-5.752,2.535-5.752,5.661,0,1.815.868,3.433,2.22,4.465l-5.308-3.193c-.756-.461-1.361-1.061-1.81-1.753-1.161-1.777-1.264-4.125-.059-6.045.019-.034.039-.062.063-.096,1.176-1.777,3.493-2.511,5.649-2.286.966.101,1.903.394,2.688.869l-.005.01Z"/>
  <path class="st0" d="M24.206,37.857c.795,0,1.439.634,1.439,1.417s-.644,1.416-1.439,1.416-1.439-.634-1.439-1.416.644-1.417,1.439-1.417Z"/>
  <path class="st0" d="M22.552,53.822l-.034.053-7.888-4.494c-.693-.403-1.117-1.138-1.107-1.935v-8.604c.449.687,1.059,1.292,1.81,1.752l5.308,3.193c.41.312.863.576,1.351.773v8.283c0,.418.225.783.556.984l.005-.005Z"/>
  <path class="st1" d="M26.616,34.184c-.737-.341-1.566-.533-2.434-.533-3.181,0-5.752,2.535-5.752,5.661,0,1.815.868,3.433,2.22,4.465.41.312.863.576,1.351.773v8.283c0,.418.224.783.556.984.181.115.395.178.624.178h5.576c.522,0,.971-.336,1.122-.802.039-.115.059-.231.059-.36v-13.521c0-.663-.117-1.296-.327-1.887-.512-1.436-1.6-2.602-2.99-3.241"/>
  <path class="st1" d="M26.615,34.184l-4.747-2.9c-.785-.475-1.722-.773-2.688-.869-2.156-.221-4.473.509-5.649,2.285-.024.029-.044.062-.063.096-1.205,1.921-1.107,4.269.058,6.045.449.687,1.059,1.292,1.81,1.753l5.308,3.193"/>
  <path class="st1" d="M25.645,39.279c0,.783-.644,1.417-1.439,1.417s-1.439-.634-1.439-1.417.644-1.416,1.439-1.416,1.439.634,1.439,1.416Z"/>
  <path class="st1" d="M58.539,34.549c1.595,1.003,2.649,2.766,2.649,4.768,0,2.367-1.473,4.393-3.571,5.238v8.283c0,.643-.527,1.162-1.181,1.162h-5.576c-.654,0-1.181-.518-1.181-1.162"/>
  <path class="st1" d="M49.686,41.766v-2.449c0-3.131,2.576-5.661,5.752-5.661,1.141,0,2.205.326,3.103.893"/>
  <path class="st1" d="M55.637,40.604c.795,0,1.439-.634,1.439-1.417s-.644-1.416-1.439-1.416-1.439.634-1.439,1.416.644,1.417,1.439,1.417Z"/>
  <path class="st1" d="M13.522,38.842v8.604c-.005.792.415,1.532,1.107,1.935l7.888,4.494"/>
  <path class="st1" d="M50.335,41.996c.273.187.449.499.449.855v3.495c0,.576-.473,1.042-1.059,1.042h-19.792"/>
  <path class="st1" d="M29.933,41.809h19.792c.215,0,.415.062.581.168"/>
  <path class="st1" d="M50.334,41.996l-.029-.014-.62-.403-6.347-4.11-.059-.038h-13.674"/>
  <path class="st1" d="M29.933,53.217h19.753v-5.829"/>
  <path class="st1" d="M43.363,37.43c-.502-2.185.337-4.912,2.308-6.28.956-.663,2.103-.96,3.259-.97,1.307-.014,2.634.331,3.722.917.893.48,5.454,2.866,5.878,3.447"/>
  <path class="st1" d="M19.181,30.386s.215-2.098-.629-5.493c-.507-2.031-1.317-4.782,1.395-7.438.717-.701,2.098-2.012,5.547-2.012h17.43"/>
  <path class="st1" d="M47.344,16.606c-.859-.586-2.234-1.157-4.63-1.157"/>
  <path class="st1" d="M48.935,30.175s0-1.805.844-5.195c.507-2.031,1.146-4.993-1.566-7.649-.22-.211-.493-.471-.864-.725"/>
  <path class="st1" d="M13.483,32.667s.215-3.308-.058-6.227c-.166-1.796-1.815-4.173-1.551-7.265.263-3.092,2.449-4.888,4.756-5.618,1.781-.562,4.439-.639,4.439-.639l15.172-.125s3.951.096,5.654.73c3.146,1.167,5.317,2.972,5.449,3.083.005,0,.005.005.005.005"/>
</svg>