<?xml version="1.0" encoding="UTF-8"?>
<svg id="Layer_1" xmlns="http://www.w3.org/2000/svg" xmlns:xlink="http://www.w3.org/1999/xlink" version="1.1" viewBox="0 0 68 68">
  <!-- Generator: Adobe Illustrator 30.0.0, SVG Export Plug-In . SVG Version: 2.1.1 Build 123)  -->
  <defs>
    <style>
      .st0, .st1 {
        fill: none;
      }

      .st2 {
        fill: #ffc68c;
      }

      .st3 {
        fill: #ffed8f;
      }

      .st4 {
        fill: #d18000;
      }

      .st1 {
        stroke: #002140;
        stroke-linecap: round;
        stroke-linejoin: round;
        stroke-width: 1px;
      }

      .st5 {
        clip-path: url(#clippath);
      }
    </style>
    <clipPath id="clippath">
      <rect class="st0" width="68" height="68"/>
    </clipPath>
  </defs>
  <g class="st5">
    <g>
      <path class="st4" d="M28.2,37.15s.887-3.937,3.613-7.801c2.726-3.865,11.852-14.019,13.564-16.985,1.712-2.966,2.807-7.772,2.807-7.772,0,0,1.187-1.886,2.947-1.165,1.76.718,1.708,2.863,1.708,2.863,0,0-1.121,5.879-4.244,10.602-3.123,4.723-11.499,13.925-12.772,15.959-1.272,2.034-3.225,6.443-3.225,6.443l-4.398-2.143h0Z"/>
      <path class="st3" d="M31.984,43.784l.303-1.211.495-1.198s.718-1.761-1.803-3.216c-2.521-1.455-4.076-.476-4.076-.476l-.728,1.26-1.398,1.565,7.209,3.271-.003.004Z"/>
      <path class="st2" d="M28.267,64.38s-.281-2.141.109-3.957c.391-1.818,3.633-11.547,3.477-12.758-.156-1.211-.021-5.218-2.844-6.717-2.826-1.5-5.545.356-5.759.498-.213.142-3.103,2.294-3.381,2.661-.278.367-5.516,7.954-7.034,8.529-1.518.575-3.588,1.421-3.588,1.421,0,0,.55.648,1.27.995.721.351,2.414.273,2.414.273,0,0,.979,2.872,1.685,3.017.706.145,2.447-.697,2.447-.697l.809,2.708,2.821-.546,1.276,3.043s2.973-.128,3.06-.278c.087-.15,1.675,2.353,3.242,1.806h-.003Z"/>
      <path class="st1" d="M32.638,39.555c1.645-10.132,19.713-20.566,20.031-33.911.02-.85-.434-1.642-1.172-2.068-1.428-.825-3.215.051-3.486,1.676-2.049,12.313-18.267,22.158-19.822,31.731"/>
      <path class="st1" d="M26.022,39.215c1.166-2.339,2.961-2.269,4.845-1.181,1.884,1.088,3.015,2.804,1.247,4.874"/>
      <path class="st1" d="M24.897,40.321c.934-1.618,3.218-2.049,5.102-.961,1.884,1.088,2.653,3.281,1.719,4.899"/>
      <path class="st1" d="M28.406,64.696c-2.457-3.791,8.501-20.206.363-23.916-8.141-3.711-13.692,14.637-19.842,12.964"/>
      <path class="st1" d="M8.924,53.743s1.987,2.664,4.176,1.159c0,0-.333,1.718,1.583,3.42l2.454-.824.686,3.033,3.078-.991.828,3.246s2.403.86,3.345-.772c0,0-.298,2.003,3.331,2.68"/>
      <path class="st1" d="M17.135,57.497c3.58-1.819,2.787-6.314,4.55-8.908"/>
      <path class="st1" d="M29.894,41.793s.934,3.177-.938,7.105"/>
      <path class="st1" d="M28.441,40.889s-3.352.898-5.608,4.805"/>
      <path class="st1" d="M29.29,41.245s-.835,2.814-2.054,4.812"/>
      <path class="st1" d="M26.715,54.262s-2.936,4.631-1.642,7.753"/>
      <path class="st1" d="M22.294,56.784l-1.393,2.754"/>
      <path class="st1" d="M30.952,33.143c.512.296,1.282-.079,1.72-.837.438-.758.377-1.612-.135-1.908-.512-.296-1.282.079-1.72.837-.438.758-.377,1.612.135,1.908Z"/>
      <path class="st1" d="M51.437,3.618c-.446,1.831-1.428,3.485-2.007,5.278-.579,1.793-.685,3.922.48,5.403"/>
      <path class="st1" d="M42.804,16.591c.14,1.523-.482,3.023-1.315,4.306-.833,1.283-1.879,2.413-2.742,3.676-1.558,2.286-2.481,4.998-2.64,7.758"/>
    </g>
  </g>
</svg>