<?xml version="1.0" encoding="UTF-8"?>
<svg id="Layer_1" xmlns="http://www.w3.org/2000/svg" version="1.1" viewBox="0 0 68 68">
  <!-- Generator: Adobe Illustrator 30.0.0, SVG Export Plug-In . SVG Version: 2.1.1 Build 123)  -->
  <defs>
    <style>
      .st0 {
        fill: #00b268;
      }

      .st1 {
        fill: #fffaf0;
      }

      .st2 {
        fill: #002140;
      }

      .st3, .st4 {
        fill: none;
        stroke: #002140;
        stroke-linecap: round;
        stroke-linejoin: round;
      }

      .st5 {
        fill: #5be3aa;
      }

      .st6 {
        fill: #085239;
      }

      .st7 {
        fill: #03d47c;
      }

      .st8 {
        fill: #008c59;
      }

      .st4 {
        stroke-width: .333px;
      }
    </style>
  </defs>
  <path class="st7" d="M39.197,13.616h-6.33l-.074-.053,4.4-6.235,2.133,6.241-.13.046h.001Z"/>
  <path class="st7" d="M39.326,13.57l1.521,4.456-.162.057c-4.402-4.06-10.233-.683-10.888-.28l2.993-4.24.073.053h6.332l.13-.046h0Z"/>
  <path class="st0" d="M40.848,18.026l-1.521-4.456-2.133-6.241,8.318,12.964h-3.888l-.776-2.267Z"/>
  <path class="st7" d="M31.023,26.093l.065-.379c.694.287,1.541.46,2.58.469,5.009.042,7.181-3.6,7.908-5.354l.208-.072,3.045,8.911-15.087-.092,1.281-3.482h0Z"/>
  <path class="st1" d="M31.088,25.714c-2.652-1.099-3.017-3.854-2.952-5.323l-.11-.079,1.772-2.51c.655-.403,6.483-3.782,10.888.28l.162-.057.776,2.266.16.464-.208.072c-.726,1.754-2.898,5.396-7.908,5.354-1.04-.009-1.887-.182-2.58-.469v.002ZM37.963,21.308l-3.486-.357,3.341-1.986c-.415-.747-1.204-1.229-2.217-1.237-1.779-.013-3.575,1.439-4.002,3.245-.432,1.804.663,3.28,2.442,3.296,1.686.013,3.382-1.29,3.923-2.961h-.001Z"/>
  <path class="st7" d="M31.088,25.714l-.065.379-1.282,3.482-8.007-.05-.141-.101,6.432-9.11.11.079c-.065,1.469.3,4.224,2.952,5.324v-.002h.001Z"/>
  <path class="st7" d="M63.676,56.09c.041,1.765-.618,3.383-1.716,4.581l-.177-.109-2.466-2.51.188-.324c.287-.444.449-.981.437-1.553-.035-1.504-1.269-2.698-2.753-2.665-1.487.035-2.665,1.285-2.63,2.79.017.74.322,1.399.802,1.879l-.03.029-2.861,2.315-.035.031c-.972-1.112-1.575-2.564-1.61-4.165-.065-2.799,1.623-5.225,4.048-6.204.692-.28,1.442-.442,2.23-.46.638-.015,1.258.066,1.841.23,2.673.736,4.666,3.184,4.733,6.136h-.001Z"/>
  <path class="st5" d="M58.98,49.818l-.039.138c-.586-.164-1.206-.245-1.841-.23-.789.017-1.539.179-2.23.46l-.052-.125c-.609-2.24-2.358-2.678-6.019-2.678l-.004.004c-.03,0-.058-1.086-.078-2.17.013-.812-.03-1.78-.032-2.174l2.487.063c.635.015,1.269.079,1.885.23,3.127.767,5.295,3.051,5.924,6.482h0Z"/>
  <path class="st0" d="M51.517,29.652l5.725,8.926h-9.366l-3.047-8.913,6.607.042.082-.055h0Z"/>
  <path class="st0" d="M45.723,20.617l5.794,9.035-.082.055-6.607-.042-3.045-8.908-.16-.464h3.888l.017.026.194.298h.001Z"/>
  <path class="st0" d="M48.716,45.215c.019,1.086.048,2.17.078,2.17l-.013.282c-.38,3.37-1.141,5.069-3.894,6.451l-.251.088c-.62.228-1.325.363-2.127.394-.119.004-.242.007-.365.007h-.041c-5.094,0-6.54-5.547-6.54-11.595v-.053h1.266c6.144-.015,11.856-.011,11.856.055v.028s.013,1.088.035,2.174l-.004-.002h0Z"/>
  <path class="st7" d="M29.742,29.573l15.087.092,3.047,8.913-11.121.039-3.27.011-18.437.066,6.544-9.27.14.101,8.007.05.002-.002h0ZM37.483,31.826l-9.2-.075s-.864,4.776,3.925,4.816c0,0,4.348.377,5.275-4.741Z"/>
  <path class="st8" d="M42.51,54.608l.525,2.987h-12.669l.525-2.987.007-.075c.497.05,1.022.075,1.569.075h9.678c.123,0,.246,0,.365-.007,0,0,0,.007,0,.007Z"/>
  <path class="st7" d="M22.445,47.357c-.341-1.364-.486-2.838-.486-4.342,0,0,5.556-.028,11.599-.046.666,0,1.333-.004,2.003-.007v.053c0,6.048,1.446,11.595,6.54,11.595h-9.637c-.549,0-1.074-.024-1.569-.074-5.072-.493-7.512-3.425-8.452-7.176l.002-.002h0Z"/>
  <path class="st6" d="M41.319,57.595v2.591h-9.239v-2.591h9.239Z"/>
  <path class="st2" d="M34.477,20.952l3.486.357c-.543,1.671-2.237,2.974-3.923,2.961-1.779-.015-2.874-1.489-2.442-3.296.43-1.804,2.224-3.258,4.002-3.245,1.016.009,1.802.49,2.217,1.237l-3.341,1.986h0Z"/>
  <path class="st2" d="M28.281,31.752l9.2.074c-.927,5.118-5.275,4.741-5.275,4.741-4.789-.039-3.925-4.816-3.925-4.816h0Z"/>
  <path class="st8" d="M36.828,42.662v.296h-1.266c-.67,0-1.338.004-2.003.007v-.208l-.074-4.027v-.103l3.27-.011v.013l.074,4.032v.002h-.001Z"/>
  <path class="st5" d="M22.445,47.357h-3.125l-2.492-.063c-.633-.017-1.269-.081-1.884-.232-3.741-.915-6.11-4.003-6.11-8.632v-13.965l.037-.252c.642.199,1.323.3,2.029.282.558-.013,1.096-.096,1.606-.245l.179.6v12.487c0,4.566,1.349,5.678,6.231,5.678h3.043c0,1.502.145,2.976.486,4.34v.002Z"/>
  <path class="st7" d="M17.183,17.833c.067,3.033-1.921,5.63-4.675,6.418-.512.149-1.05.232-1.606.245-.707.017-1.387-.083-2.029-.282-2.58-.799-4.48-3.199-4.545-6.081-.039-1.765.618-3.385,1.716-4.583l.179.109,2.464,2.51-.186.324c-.29.447-.452.981-.439,1.553.035,1.504,1.269,2.7,2.753,2.665,1.487-.035,2.665-1.285,2.63-2.79-.017-.736-.32-1.397-.8-1.877l.028-.031,2.861-2.315.035-.031c.973,1.112,1.575,2.564,1.612,4.165h.002Z"/>
  <path class="st3" d="M21.594,29.422l-6.544,9.272,18.435-.066,3.27-.011,11.121-.039-3.047-8.913-3.045-8.908-.16-.464-.776-2.267-1.521-4.456-2.133-6.241-4.4,6.235-2.993,4.24-1.774,2.51-6.432,9.11v-.002Z"/>
  <path class="st3" d="M41.576,20.292h3.942"/>
  <path class="st3" d="M28.136,20.391c-.065,1.469.3,4.224,2.952,5.323.694.287,1.541.46,2.581.469,5.009.042,7.181-3.6,7.908-5.354"/>
  <path class="st3" d="M29.739,17.84s.022-.013.061-.037c.655-.403,6.483-3.782,10.888.28"/>
  <path class="st4" d="M34.038,24.267c1.686.013,3.382-1.29,3.923-2.961l-3.486-.357,3.341-1.986c-.415-.747-1.204-1.229-2.217-1.237-1.779-.013-3.575,1.439-4.003,3.245-.432,1.804.664,3.28,2.442,3.296Z"/>
  <path class="st3" d="M21.734,29.523l8.007.05,15.087.092,6.607.042"/>
  <path class="st3" d="M29.737,29.582l.004-.009,1.282-3.48"/>
  <path class="st3" d="M36.839,29.586l.026-3.493"/>
  <path class="st3" d="M37.483,31.826l-9.2-.074s-.864,4.776,3.925,4.816c0,0,4.348.377,5.275-4.741h0Z"/>
  <path class="st3" d="M45.529,20.319l-.017-.026-8.318-12.964"/>
  <path class="st3" d="M47.876,38.578h9.366l-5.725-8.926-5.794-9.035"/>
  <path class="st3" d="M33.485,38.731l.074,4.027"/>
  <path class="st3" d="M36.754,38.63l.074,4.031"/>
  <path class="st3" d="M8.834,24.464v13.965c0,4.627,2.369,7.717,6.11,8.632.618.151,1.253.215,1.885.232l2.492.063h3.142"/>
  <path class="st3" d="M12.686,24.849v12.487c0,4.566,1.348,5.678,6.231,5.678h2.691"/>
  <path class="st3" d="M15.569,13.668c.973,1.112,1.576,2.564,1.612,4.165.067,3.033-1.921,5.63-4.675,6.418-.512.149-1.05.232-1.606.245-.707.017-1.388-.083-2.029-.282-2.58-.799-4.48-3.199-4.545-6.081-.039-1.765.618-3.385,1.716-4.583"/>
  <path class="st3" d="M12.614,16.011l.032.033c.48.48.782,1.143.8,1.877.035,1.504-1.143,2.755-2.63,2.79-1.485.035-2.719-1.161-2.753-2.665-.013-.574.149-1.108.439-1.553"/>
  <path class="st3" d="M12.673,16.013l2.861-2.315"/>
  <path class="st3" d="M8.685,16.169l-2.464-2.51"/>
  <path class="st3" d="M58.98,49.818c-.629-3.434-2.796-5.718-5.924-6.482-.618-.151-1.251-.215-1.885-.23l-2.487-.063s.013,1.088.035,2.174c.02,1.086.048,2.17.078,2.17l.004-.004c3.661,0,5.409.438,6.019,2.678"/>
  <path class="st3" d="M52.431,60.553c-.972-1.112-1.576-2.564-1.61-4.165-.065-2.799,1.623-5.225,4.048-6.204.692-.28,1.442-.442,2.23-.46.638-.015,1.258.066,1.841.23,2.673.736,4.666,3.184,4.733,6.136.041,1.765-.618,3.383-1.716,4.581"/>
  <path class="st3" d="M55.388,58.21s-.022-.02-.03-.031c-.48-.479-.785-1.141-.802-1.879-.035-1.504,1.143-2.755,2.63-2.79,1.485-.033,2.719,1.161,2.753,2.665.013.574-.149,1.11-.437,1.553"/>
  <path class="st3" d="M55.327,58.208l-2.861,2.315"/>
  <path class="st3" d="M59.315,58.052l2.466,2.51"/>
  <path class="st3" d="M48.697,45.736c.009-.16.015-.337.019-.521.013-.812-.03-1.78-.032-2.175v-.028c0-.066-5.714-.07-11.856-.055h-1.266c-.67,0-1.338.004-2.003.007-6.045.018-11.599.046-11.599.046,0,1.504.145,2.978.486,4.342.94,3.753,3.38,6.683,8.452,7.176.497.05,1.022.074,1.569.074h9.678"/>
  <path class="st3" d="M42.144,54.607c.123,0,.246,0,.365-.006.802-.031,1.506-.167,2.127-.394"/>
  <path class="st3" d="M42.103,54.608c-5.094,0-6.54-5.547-6.54-11.595"/>
  <path class="st3" d="M30.889,54.608l-.523,2.987h6.613"/>
  <path class="st3" d="M36.867,60.185h-4.787v-2.591"/>
  <path class="st3" d="M42.509,54.608l.525,2.987h-6.056"/>
  <path class="st3" d="M36.867,60.185h4.452v-2.591"/>
  <path class="st3" d="M44.887,54.119c2.756-1.38,3.516-3.081,3.894-6.451"/>
  <path class="st3" d="M32.867,13.616h6.33"/>
</svg>