<?xml version="1.0" encoding="UTF-8"?>
<svg id="Layer_1" xmlns="http://www.w3.org/2000/svg" version="1.1" viewBox="0 0 20 20">
  <!-- Generator: Adobe Illustrator 30.3.0, SVG Export Plug-In . SVG Version: 2.1.3 Build 182)  -->
  <path d="M16.86,12c1.1,0,2,.9,2,2v1h.5c.28,0,.5.22.5.5v3c0,.83-.67,1.5-1.5,1.5h-3c-.83,0-1.5-.67-1.5-1.5v-3c0-.28.22-.5.5-.5h.5v-1c0-1.1.9-2,2-2ZM9.45,1.37c.34-.22.77-.22,1.11,0l5.19,3.46c.16.11.36.17.55.17h1.7v2h-1c-.55,0-1,.45-1,1v2.09c-.77.17-1.46.56-2,1.11v-3.2c0-.55-.45-1-1-1h-1c-.55,0-1,.45-1,1v6c0,.52.4.95.91,1-.03.16-.05.33-.05.5v1.5H2v-2h1c.55,0,1-.45,1-1v-6c0-.55-.45-1-1-1h-1v-2h1.7c.2,0,.39-.06.55-.17l5.19-3.46ZM7,7c-.55,0-1,.45-1,1v6c0,.55.45,1,1,1h1c.55,0,1-.45,1-1v-6c0-.55-.45-1-1-1h-1ZM16.86,13c-.55,0-1,.45-1,1v1h2v-1c0-.55-.45-1-1-1Z"/>
</svg>