<?xml version="1.0" encoding="utf-8"?>
<!-- Generator: Adobe Illustrator 28.1.0, SVG Export Plug-In . SVG Version: 6.00 Build 0)  -->
<svg version="1.1" id="Layer_1" xmlns="http://www.w3.org/2000/svg" xmlns:xlink="http://www.w3.org/1999/xlink" x="0px" y="0px"
	 viewBox="0 0 264 172" style="enable-background:new 0 0 264 172;" xml:space="preserve">
<style type="text/css">
	.st0{fill:#780505;stroke:#002140;}
	.st1{fill:#F25730;stroke:#002140;stroke-linejoin:round;}
	.st2{fill:#F25730;stroke:#002140;}
	.st3{fill:#BF3013;stroke:#002140;}
	.st4{fill:#780505;stroke:#002140;stroke-linejoin:round;}
</style>
<path class="st0" d="M9.317,92c-8-9.2,0.333-26.167,5.5-33.5c10.667,1.333,38.8,4.9,66,8.5c27.2,3.6,45.667,9.833,48.5,14
	c-1.166,2.667-2.2,6.7,27-10.5s76.167-13.833,96-10c1.334,1.667,4.1,8.1,4.5,20.5c0.4,12.4-2.833,16.833-4.5,17.5
	c-2.833,2.167-13.5,5.2-33.5,0s-72-2.167-95.5,0C88.65,100.167,17.317,101.2,9.317,92z"/>
<g>
	<path class="st1" d="M195.271,80.313c-0.969-8.347-2.663-16.382-4.278-21.089c-9.426,1.413-18.687,3.766-27.002,7.395
		c0.671,4.117,1.142,9.213,1.451,14.434c0.307,5.197,0.454,10.445,0.508,14.853c10.335-0.324,20.803-0.399,30.082-0.027
		C196.208,91.024,195.882,85.578,195.271,80.313z"/>
	<path class="st1" d="M240.078,79.617c-0.989-8.514-2.73-16.706-4.374-21.37c-8.408-0.752-18.204-1.106-28.361-0.608
		c-0.159,0.848-0.077,1.777,0.238,2.774l0.127,0.416c1.292,4.394,2.085,11.838,2.541,19.527c0.351,5.935,0.495,11.936,0.526,16.673
		c3.033,0.393,5.754,0.875,8.041,1.47c8.997,2.339,16.089,3.005,21.445,2.84C241.251,95.304,240.966,87.272,240.078,79.617z"/>
</g>
<g>
	<path class="st1" d="M64.008,64.793c-10.112-1.318-19.811-2.565-28.118-3.626c-1.687,4.476-3.64,10.656-4.93,17.097
		c-1.335,6.664-1.972,13.72-0.784,19.43c8.508,0.937,18.858,1.472,29.791,1.726c0.229-4.823,0.638-11.087,1.271-17.269
		C61.91,75.576,62.828,69.212,64.008,64.793z"/>
	<path class="st1" d="M108.151,72.113c-7.526-1.918-16.767-3.715-27.334-5.113c-0.183-0.024-0.366-0.048-0.549-0.073
		c-0.911,4.786-1.836,11.969-1.89,19.302c-0.034,4.533,0.27,9.18,1.138,13.372c10.868-0.033,21.585-0.263,30.996-0.582
		c-0.592-4.354-1.212-9.541-1.67-14.701C108.462,80.028,108.199,75.803,108.151,72.113z"/>
</g>
<path class="st2" d="M141.127,158.204c0.527-0.073,1.019,0.279,1.114,0.803c0.275,1.511,0.605,3.5,0.855,5.405
	c0.153,1.164,0.277,2.309,0.341,3.299c0.035,0.558,0.054,1.098,0.041,1.578c-0.014,0.527-0.49,0.888-1.015,0.83l-1.05-0.117
	c-0.574-0.064-0.998-0.604-1.006-1.181c-0.004-0.279-0.017-0.597-0.04-0.952c-0.059-0.926-0.178-2.021-0.328-3.16
	c-0.238-1.813-0.551-3.712-0.816-5.179c-0.102-0.564,0.284-1.101,0.851-1.18L141.127,158.204z"/>
<path class="st3" d="M146.361,157.058c0.517-0.066,0.998,0.275,1.099,0.787c0.269,1.356,0.588,3.124,0.829,4.818
	c0.15,1.051,0.272,2.085,0.333,2.979c0.033,0.482,0.05,0.948,0.039,1.367c-0.013,0.515-0.477,0.864-0.989,0.814l-1.042-0.103
	c-0.587-0.057-1.028-0.616-1.043-1.206c-0.005-0.217-0.017-0.458-0.035-0.721c-0.057-0.837-0.173-1.825-0.32-2.854
	c-0.226-1.586-0.522-3.243-0.778-4.549c-0.113-0.573,0.28-1.125,0.859-1.199L146.361,157.058z"/>
<path class="st2" d="M151.516,155.927c0.519-0.067,1.002,0.277,1.103,0.79c0.269,1.383,0.59,3.188,0.833,4.918
	c0.15,1.07,0.273,2.122,0.334,3.033c0.033,0.494,0.051,0.973,0.04,1.402c-0.014,0.517-0.48,0.868-0.994,0.817l-1.043-0.105
	c-0.586-0.059-1.024-0.614-1.037-1.202c-0.005-0.228-0.017-0.482-0.036-0.76c-0.057-0.852-0.174-1.858-0.321-2.906
	c-0.228-1.624-0.527-3.322-0.785-4.656c-0.111-0.571,0.281-1.12,0.858-1.195L151.516,155.927z"/>
<path class="st3" d="M156.699,154.785c0.511-0.062,0.986,0.273,1.091,0.777c0.265,1.267,0.577,2.909,0.813,4.482
	c0.149,0.986,0.269,1.956,0.328,2.795c0.031,0.438,0.048,0.863,0.038,1.247c-0.012,0.507-0.468,0.848-0.972,0.802l-1.035-0.093
	c-0.597-0.054-1.05-0.626-1.07-1.225c-0.005-0.179-0.016-0.374-0.031-0.585c-0.055-0.785-0.17-1.712-0.315-2.678
	c-0.219-1.454-0.504-2.972-0.754-4.184c-0.12-0.579,0.278-1.14,0.865-1.212L156.699,154.785z"/>
<path class="st2" d="M161.863,153.653c0.511-0.062,0.986,0.273,1.091,0.777c0.265,1.271,0.577,2.917,0.814,4.495
	c0.148,0.988,0.268,1.96,0.328,2.802c0.031,0.44,0.047,0.866,0.038,1.252c-0.012,0.506-0.469,0.848-0.974,0.802l-1.035-0.094
	c-0.596-0.054-1.049-0.625-1.068-1.224c-0.006-0.18-0.016-0.377-0.031-0.59c-0.056-0.787-0.171-1.716-0.316-2.684
	c-0.219-1.459-0.504-2.983-0.755-4.198c-0.119-0.579,0.278-1.14,0.865-1.211L161.863,153.653z"/>
<path class="st3" d="M167.023,152.521c0.511-0.062,0.987,0.274,1.091,0.778c0.266,1.279,0.579,2.935,0.816,4.524
	c0.148,0.993,0.268,1.971,0.328,2.816c0.031,0.444,0.048,0.874,0.038,1.263c-0.012,0.507-0.469,0.849-0.975,0.803l-1.035-0.095
	c-0.596-0.054-1.047-0.624-1.066-1.222c-0.006-0.184-0.016-0.385-0.032-0.602c-0.056-0.791-0.171-1.726-0.316-2.699
	c-0.219-1.47-0.506-3.005-0.757-4.229c-0.118-0.578,0.278-1.138,0.864-1.209L167.023,152.521z"/>
<path class="st2" d="M172.184,151.389c0.512-0.062,0.987,0.274,1.092,0.779c0.266,1.282,0.579,2.946,0.816,4.54
	c0.149,0.997,0.269,1.977,0.329,2.826c0.031,0.445,0.048,0.877,0.038,1.267c-0.012,0.508-0.47,0.851-0.976,0.804l-1.036-0.095
	c-0.595-0.054-1.046-0.623-1.064-1.221c-0.006-0.186-0.016-0.389-0.032-0.609c-0.056-0.793-0.171-1.731-0.316-2.707
	c-0.22-1.477-0.507-3.019-0.759-4.247c-0.118-0.578,0.279-1.138,0.864-1.209L172.184,151.389z"/>
<path class="st3" d="M177.353,150.254c0.509-0.061,0.983,0.273,1.089,0.774c0.264,1.249,0.574,2.865,0.81,4.413
	c0.148,0.972,0.268,1.929,0.327,2.756c0.031,0.43,0.047,0.846,0.038,1.223c-0.013,0.504-0.467,0.844-0.97,0.799l-1.033-0.092
	c-0.599-0.053-1.054-0.627-1.075-1.228c-0.006-0.171-0.016-0.357-0.03-0.557c-0.055-0.774-0.17-1.688-0.315-2.64
	c-0.217-1.427-0.5-2.916-0.748-4.109c-0.121-0.58,0.277-1.143,0.865-1.214L177.353,150.254z"/>
<path class="st2" d="M182.481,149.14c0.523-0.07,1.012,0.279,1.109,0.798c0.273,1.459,0.599,3.375,0.846,5.208
	c0.152,1.126,0.276,2.234,0.338,3.192c0.035,0.532,0.053,1.048,0.041,1.507c-0.014,0.524-0.486,0.881-1.007,0.825l-1.047-0.112
	c-0.579-0.062-1.008-0.607-1.018-1.189c-0.004-0.258-0.017-0.551-0.038-0.875c-0.059-0.897-0.177-1.956-0.326-3.058
	c-0.234-1.737-0.541-3.555-0.804-4.968c-0.105-0.567,0.283-1.109,0.854-1.186L182.481,149.14z"/>
<path class="st4" d="M162.921,69.008c-9.949-2.689-52.018,0-44.77,8.068c5.638,6.275,16.482,24.653,11.441,41.685
	c-3.183,10.758,3.923,33.773,10.224,42.738c0,0,1.983-1,20-6.5c18.018-5.5,24-4.5,24-4.5c-1.326-3.138-3.982-8.99-8.459-20.083
	c-5.969-14.792,1.057-18.826,4.477-28.687C183.254,91.868,172.87,71.698,162.921,69.008z"/>
<g>
	<path class="st1" d="M178.853,104.219c0.347-0.792,0.679-1.617,0.981-2.489c1.794-5.173-0.213-13.179-3.96-20.014
		c-23.339-3.189-42.656,2.039-50.869,5.678c3.207,6.23,5.927,14.158,5.879,22.32C151.64,103.288,168.83,103.039,178.853,104.219z"/>
	<path class="st1" d="M179.013,139.305c-1.053-2.509-2.267-5.445-3.656-8.888c-2.292-5.681-2.664-9.772-2.064-13.219
		c-19.284,0.155-35.097,5.504-44.43,10.091c0.389,7.385,2.721,16.377,5.635,23.75c12.924-4.677,23.6-7.794,32.022-9.663
		C171.475,140.276,175.63,139.614,179.013,139.305z"/>
</g>
</svg>
