<?xml version="1.0" encoding="UTF-8"?>
<svg id="Layer_1" xmlns="http://www.w3.org/2000/svg" version="1.1" viewBox="0 0 20 20">
  <!-- Generator: Adobe Illustrator 30.1.0, SVG Export Plug-In . SVG Version: 2.1.1 Build 136)  -->
  <path d="M4,16.5c0,.83.67,1.5,1.5,1.5h9.5c0,1.1-.9,2-2,2H4c-1.1,0-2-.9-2-2V6c0-1.1.9-2,2-2v12.5Z"/>
  <path d="M14.01.11c.13-.15.35-.15.47,0l.9,1.07c.13.15.35.15.47,0l.59-.7c.19-.23.55-.09.55.21v14.6c0,.3-.36.44-.55.21l-.59-.7c-.13-.15-.35-.15-.47,0l-.9,1.07c-.13.15-.35.15-.47,0l-.9-1.07c-.13-.15-.35-.15-.47,0l-.9,1.07c-.13.15-.35.15-.47,0l-.9-1.07c-.13-.15-.35-.15-.47,0l-.9,1.07c-.13.15-.35.15-.47,0l-.9-1.07c-.13-.15-.35-.15-.47,0l-.59.7c-.19.23-.55.09-.55-.21V.7c0-.3.36-.44.55-.21l.59.7c.13.15.35.15.47,0l.9-1.07c.13-.15.35-.15.47,0l.9,1.07c.13.15.35.15.47,0l.9-1.07c.13-.15.35-.15.47,0l.9,1.07c.13.15.35.15.47,0l.9-1.07ZM9.14,10.45c-.43,0-.78.37-.79.82,0,.45.35.82.79.82h4.71c.43,0,.79-.37.79-.82,0-.45-.35-.82-.79-.82h-4.71ZM9.14,7.18c-.43,0-.79.37-.79.82,0,.45.35.82.79.82h3.14c.43,0,.79-.37.79-.82,0-.45-.35-.82-.79-.82h-3.14ZM9.14,3.92c-.43,0-.79.37-.79.82,0,.45.35.82.79.82h4.71c.43,0,.79-.37.79-.82,0-.45-.35-.82-.79-.82h-4.71Z" fill-rule="evenodd"/>
</svg>