<svg width="20" height="20" viewBox="0 0 20 20" fill="none" xmlns="http://www.w3.org/2000/svg">
<path d="M10 5.5V3M10 3L12 1M10 3L8 1" stroke="#A2A9A3" stroke-width="2" stroke-linecap="round" stroke-linejoin="round"/>
<path d="M10 14.5V17M10 17L12 19M10 17L8 19" stroke="#A2A9A3" stroke-width="2" stroke-linecap="round" stroke-linejoin="round"/>
<path d="M13.8959 7.75012L16.0609 6.50012M16.0609 6.50012L18.793 7.23217M16.0609 6.50012L16.793 3.76807" stroke="#A2A9A3" stroke-width="2" stroke-linecap="round" stroke-linejoin="round"/>
<path d="M6.10219 12.2501L3.93713 13.5001M3.93713 13.5001L3.20508 16.2322M3.93713 13.5001L1.20508 12.7681" stroke="#A2A9A3" stroke-width="2" stroke-linecap="round" stroke-linejoin="round"/>
<path d="M13.8956 12.2504L16.0607 13.5004M16.0607 13.5004L16.7927 16.2324M16.0607 13.5004L18.7927 12.7683" stroke="#A2A9A3" stroke-width="2" stroke-linecap="round" stroke-linejoin="round"/>
<path d="M6.10219 7.75036L3.93713 6.50036M3.93713 6.50036L1.20508 7.23241M3.93713 6.50036L3.20508 3.76831" stroke="#A2A9A3" stroke-width="2" stroke-linecap="round" stroke-linejoin="round"/>
<circle cx="10" cy="10" r="3.5" stroke="#A2A9A3" stroke-width="2" stroke-linecap="round" stroke-linejoin="round"/>
</svg>
