<?xml version="1.0" encoding="utf-8"?>
<!-- Generator: Adobe Illustrator 28.1.0, SVG Export Plug-In . SVG Version: 6.00 Build 0)  -->
<svg version="1.1" id="Layer_1" xmlns="http://www.w3.org/2000/svg" xmlns:xlink="http://www.w3.org/1999/xlink" x="0px" y="0px"
	 viewBox="0 0 20 20" style="enable-background:new 0 0 20 20;" xml:space="preserve">
<path d="M18.534,11.803l-2.332,0.624l-1.807-1.043c-0.039-0.023-0.082-0.025-0.123-0.041C14.407,10.916,14.5,10.471,14.5,10
	c0-0.468-0.092-0.91-0.225-1.334c0.04-0.017,0.082-0.027,0.12-0.05l1.807-1.043l2.332,0.625c0.536,0.146,1.082-0.173,1.225-0.707
	c0.143-0.534-0.174-1.082-0.707-1.225l-1.767-0.473l0.474-1.766c0.144-0.533-0.174-1.082-0.707-1.225
	c-0.531-0.143-1.081,0.174-1.225,0.707l-0.625,2.332l-1.807,1.043c-0.038,0.022-0.06,0.057-0.094,0.083
	c-0.612-0.665-1.412-1.149-2.325-1.353C10.982,5.575,11,5.54,11,5.5V3.414l1.707-1.707c0.391-0.391,0.391-1.023,0-1.414
	s-1.023-0.391-1.414,0L10,1.586L8.707,0.293c-0.391-0.391-1.023-0.391-1.414,0s-0.391,1.023,0,1.414L9,3.414V5.5
	c0,0.04,0.018,0.075,0.023,0.114C8.11,5.817,7.309,6.302,6.697,6.968C6.663,6.942,6.64,6.906,6.602,6.884L4.796,5.842L4.171,3.509
	c-0.143-0.533-0.69-0.851-1.225-0.707c-0.533,0.143-0.85,0.691-0.707,1.225l0.473,1.767L0.946,6.267
	c-0.534,0.143-0.85,0.691-0.707,1.225c0.143,0.533,0.686,0.85,1.225,0.707l2.332-0.625l1.806,1.043
	c0.039,0.023,0.081,0.034,0.122,0.05C5.592,9.091,5.5,9.533,5.5,10c0,0.47,0.093,0.915,0.227,1.342
	c-0.041,0.017-0.085,0.019-0.125,0.042l-1.807,1.043l-2.332-0.624c-0.539-0.146-1.082,0.175-1.225,0.707
	c-0.143,0.533,0.174,1.082,0.707,1.225l1.766,0.473l-0.473,1.767c-0.143,0.533,0.174,1.082,0.707,1.225
	c0.087,0.023,0.174,0.034,0.259,0.034c0.442,0,0.846-0.295,0.965-0.741l0.625-2.332l1.806-1.043
	c0.038-0.022,0.061-0.058,0.095-0.084c0.612,0.666,1.413,1.151,2.326,1.354C9.018,14.425,9,14.46,9,14.5v2.086l-1.707,1.707
	c-0.391,0.391-0.391,1.023,0,1.414s1.023,0.391,1.414,0L10,18.414l1.293,1.293C11.488,19.902,11.744,20,12,20
	s0.512-0.098,0.707-0.293c0.391-0.391,0.391-1.023,0-1.414L11,16.586V14.5c0-0.04-0.018-0.075-0.023-0.114
	c0.912-0.203,1.713-0.687,2.325-1.353c0.034,0.026,0.056,0.061,0.094,0.083l1.807,1.043l0.625,2.332
	c0.12,0.447,0.523,0.741,0.965,0.741c0.086,0,0.173-0.011,0.26-0.034c0.533-0.143,0.851-0.691,0.707-1.225l-0.474-1.767l1.767-0.473
	c0.533-0.143,0.85-0.69,0.707-1.225C19.616,11.977,19.069,11.66,18.534,11.803z M10,12.5c-1.378,0-2.5-1.121-2.5-2.5
	c0-1.378,1.122-2.5,2.5-2.5c1.379,0,2.5,1.122,2.5,2.5C12.5,11.379,11.379,12.5,10,12.5z"/>
</svg>
