<?xml version="1.0" encoding="UTF-8"?>
<svg id="Layer_1" xmlns="http://www.w3.org/2000/svg" version="1.1" viewBox="0 0 20 20">
  <!-- Generator: Adobe Illustrator 30.1.0, SVG Export Plug-In . SVG Version: 2.1.1 Build 136)  -->
  <path d="M4,16.5c0,.83.67,1.5,1.5,1.5h9.5c0,1.1-.9,2-2,2H4c-1.1,0-2-.9-2-2V6c0-1.1.9-2,2-2v12.5Z"/>
  <path d="M12.91,0c.22,0,.41.18.41.4v4.8c0,.22.18.4.41.4h4.88c.22,0,.41.18.41.4v8.4c0,.88-.73,1.6-1.62,1.6H7.62c-.9,0-1.62-.72-1.62-1.6V1.6c0-.88.73-1.6,1.62-1.6h5.28Z"/>
  <path d="M19,4h-3.66c-.22,0-.41-.18-.41-.4V0l4.06,4Z"/>
</svg>